<svg id="SvgjsSvg1006" width="1769.953125" height="614.828125" xmlns="http://www.w3.org/2000/svg" version="1.1" xmlns:xlink="http://www.w3.org/1999/xlink" xmlns:svgjs="http://svgjs.com/svgjs"><defs id="SvgjsDefs1007"><marker id="SvgjsMarker1059" markerWidth="16" markerHeight="12" refX="16" refY="6" viewBox="0 0 16 12" orient="auto" markerUnits="userSpaceOnUse"><path id="SvgjsPath1060" d="M0,2 L14,6 L0,11 L0,2" fill="#323232" stroke="#323232" stroke-width="2"></path></marker><marker id="SvgjsMarker1063" markerWidth="16" markerHeight="12" refX="16" refY="6" viewBox="0 0 16 12" orient="auto" markerUnits="userSpaceOnUse"><path id="SvgjsPath1064" d="M0,2 L14,6 L0,11 L0,2" fill="#323232" stroke="#323232" stroke-width="2"></path></marker><marker id="SvgjsMarker1073" markerWidth="16" markerHeight="12" refX="16" refY="6" viewBox="0 0 16 12" orient="auto" markerUnits="userSpaceOnUse"><path id="SvgjsPath1074" d="M0,2 L14,6 L0,11 L0,2" fill="#323232" stroke="#323232" stroke-width="2"></path></marker><marker id="SvgjsMarker1110" markerWidth="16" markerHeight="12" refX="16" refY="6" viewBox="0 0 16 12" orient="auto" markerUnits="userSpaceOnUse"><path id="SvgjsPath1111" d="M0,2 L14,6 L0,11 L0,2" fill="#323232" stroke="#323232" stroke-width="2"></path></marker><marker id="SvgjsMarker1131" markerWidth="16" markerHeight="12" refX="16" refY="6" viewBox="0 0 16 12" orient="auto" markerUnits="userSpaceOnUse"><path id="SvgjsPath1132" d="M0,2 L14,6 L0,11 L0,2" fill="#323232" stroke="#323232" stroke-width="2"></path></marker><marker id="SvgjsMarker1203" markerWidth="16" markerHeight="12" refX="16" refY="6" viewBox="0 0 16 12" orient="auto" markerUnits="userSpaceOnUse"><path id="SvgjsPath1204" d="M0,2 L14,6 L0,11 L0,2" fill="#323232" stroke="#323232" stroke-width="2"></path></marker><marker id="SvgjsMarker1225" markerWidth="16" markerHeight="12" refX="16" refY="6" viewBox="0 0 16 12" orient="auto" markerUnits="userSpaceOnUse"><path id="SvgjsPath1226" d="M0,2 L14,6 L0,11 L0,2" fill="#323232" stroke="#323232" stroke-width="2"></path></marker><marker id="SvgjsMarker1240" markerWidth="16" markerHeight="12" refX="16" refY="6" viewBox="0 0 16 12" orient="auto" markerUnits="userSpaceOnUse"><path id="SvgjsPath1241" d="M0,2 L14,6 L0,11 L0,2" fill="#323232" stroke="#323232" stroke-width="2"></path></marker><marker id="SvgjsMarker1250" markerWidth="16" markerHeight="12" refX="16" refY="6" viewBox="0 0 16 12" orient="auto" markerUnits="userSpaceOnUse"><path id="SvgjsPath1251" d="M0,2 L14,6 L0,11 L0,2" fill="#323232" stroke="#323232" stroke-width="2"></path></marker><marker id="SvgjsMarker1262" markerWidth="16" markerHeight="12" refX="16" refY="6" viewBox="0 0 16 12" orient="auto" markerUnits="userSpaceOnUse"><path id="SvgjsPath1263" d="M0,2 L14,6 L0,11 L0,2" fill="#323232" stroke="#323232" stroke-width="2"></path></marker><marker id="SvgjsMarker1266" markerWidth="16" markerHeight="12" refX="16" refY="6" viewBox="0 0 16 12" orient="auto" markerUnits="userSpaceOnUse"><path id="SvgjsPath1267" d="M0,2 L14,6 L0,11 L0,2" fill="#323232" stroke="#323232" stroke-width="2"></path></marker><marker id="SvgjsMarker1278" markerWidth="16" markerHeight="12" refX="16" refY="6" viewBox="0 0 16 12" orient="auto" markerUnits="userSpaceOnUse"><path id="SvgjsPath1279" d="M0,2 L14,6 L0,11 L0,2" fill="#323232" stroke="#323232" stroke-width="2"></path></marker><marker id="SvgjsMarker1282" markerWidth="16" markerHeight="12" refX="16" refY="6" viewBox="0 0 16 12" orient="auto" markerUnits="userSpaceOnUse"><path id="SvgjsPath1283" d="M0,2 L14,6 L0,11 L0,2" fill="#323232" stroke="#323232" stroke-width="2"></path></marker><marker id="SvgjsMarker1286" markerWidth="16" markerHeight="12" refX="16" refY="6" viewBox="0 0 16 12" orient="auto" markerUnits="userSpaceOnUse"><path id="SvgjsPath1287" d="M0,2 L14,6 L0,11 L0,2" fill="#323232" stroke="#323232" stroke-width="2"></path></marker><marker id="SvgjsMarker1290" markerWidth="16" markerHeight="12" refX="16" refY="6" viewBox="0 0 16 12" orient="auto" markerUnits="userSpaceOnUse"><path id="SvgjsPath1291" d="M0,2 L14,6 L0,11 L0,2" fill="#323232" stroke="#323232" stroke-width="2"></path></marker><marker id="SvgjsMarker1300" markerWidth="16" markerHeight="12" refX="16" refY="6" viewBox="0 0 16 12" orient="auto" markerUnits="userSpaceOnUse"><path id="SvgjsPath1301" d="M0,2 L14,6 L0,11 L0,2" fill="#323232" stroke="#323232" stroke-width="2"></path></marker><marker id="SvgjsMarker1304" markerWidth="16" markerHeight="12" refX="16" refY="6" viewBox="0 0 16 12" orient="auto" markerUnits="userSpaceOnUse"><path id="SvgjsPath1305" d="M0,2 L14,6 L0,11 L0,2" fill="#323232" stroke="#323232" stroke-width="2"></path></marker><marker id="SvgjsMarker1308" markerWidth="16" markerHeight="12" refX="16" refY="6" viewBox="0 0 16 12" orient="auto" markerUnits="userSpaceOnUse"><path id="SvgjsPath1309" d="M0,2 L14,6 L0,11 L0,2" fill="#323232" stroke="#323232" stroke-width="2"></path></marker></defs><g id="SvgjsG1008" transform="translate(253.55133565266908,26.369267358314772)"><path id="SvgjsPath1009" d="M 53.480892409626264 30L 53.480892409626264 555.4909189508337" stroke-dasharray="3,4" stroke="rgba(50,50,50,1)" stroke-width="2" fill="none"></path><path id="SvgjsPath1010" d="M 0 0L 106.96178481925253 0L 106.96178481925253 30L 0 30Z" stroke="rgba(50,50,50,1)" stroke-width="2" fill-opacity="1" fill="#ffffff"></path><g id="SvgjsG1011"><text id="SvgjsText1012" font-family="微软雅黑" text-anchor="middle" font-size="12px" width="85" fill="#323232" font-weight="400" align="middle" anchor="middle" family="微软雅黑" size="12px" weight="400" font-style="" opacity="1" y="-1.7999999999999998" transform="rotate(0)"><tspan id="SvgjsTspan1013" dy="15" x="53.5"><tspan id="SvgjsTspan1014" style="text-decoration:;">QueueChannel</tspan></tspan><tspan id="SvgjsTspan1015" dy="15" x="53.5"><tspan id="SvgjsTspan1016" style="text-decoration:;">Ooutput</tspan></tspan></text></g></g><g id="SvgjsG1017" transform="translate(535.3767330835725,25.838773381779546)"><path id="SvgjsPath1018" d="M 82.85714104062038 30L 82.85714104062038 563.5759051791892" stroke-dasharray="3,4" stroke="rgba(50,50,50,1)" stroke-width="2" fill="none"></path><path id="SvgjsPath1019" d="M 0 0L 165.71428208124075 0L 165.71428208124075 30L 0 30Z" stroke="rgba(50,50,50,1)" stroke-width="2" fill-opacity="1" fill="#ffffff"></path><g id="SvgjsG1020"><text id="SvgjsText1021" font-family="微软雅黑" text-anchor="middle" font-size="12px" width="145" fill="#323232" font-weight="400" align="middle" anchor="middle" family="微软雅黑" size="12px" weight="400" font-style="" opacity="1" y="5.7" transform="rotate(0)"><tspan id="SvgjsTspan1022" dy="15" x="83"><tspan id="SvgjsTspan1023" style="text-decoration:;">AbstractMessageChannel</tspan></tspan></text></g></g><g id="SvgjsG1024" transform="translate(708.2318609328494,25.228053296868097)"><path id="SvgjsPath1025" d="M 71.82640402657637 30L 71.82640402657637 559.0018494896611" stroke-dasharray="3,4" stroke="rgba(50,50,50,1)" stroke-width="2" fill="none"></path><path id="SvgjsPath1026" d="M 0 0L 143.65280805315274 0L 143.65280805315274 30L 0 30Z" stroke="rgba(50,50,50,1)" stroke-width="2" fill-opacity="1" fill="#ffffff"></path><g id="SvgjsG1027"><text id="SvgjsText1028" font-family="微软雅黑" text-anchor="middle" font-size="12px" width="122" fill="#323232" font-weight="400" align="middle" anchor="middle" family="微软雅黑" size="12px" weight="400" font-style="" opacity="1" y="5.7" transform="rotate(0)"><tspan id="SvgjsTspan1029" dy="15" x="72"><tspan id="SvgjsTspan1030" style="text-decoration:;">UnicastingDispatcher</tspan></tspan></text></g></g><g id="SvgjsG1031" transform="translate(859.265625,26.17093183711509)"><path id="SvgjsPath1032" d="M 75.25692749023449 30L 75.25692749023449 561.1111297607422" stroke-dasharray="3,4" stroke="rgba(50,50,50,1)" stroke-width="2" fill="none"></path><path id="SvgjsPath1033" d="M 0 0L 150.51385498046898 0L 150.51385498046898 30L 0 30Z" stroke="rgba(50,50,50,1)" stroke-width="2" fill-opacity="1" fill="#ffffff"></path><g id="SvgjsG1034"><text id="SvgjsText1035" font-family="微软雅黑" text-anchor="middle" font-size="12px" width="109" fill="#323232" font-weight="400" align="middle" anchor="middle" family="微软雅黑" size="12px" weight="400" font-style="" opacity="1" y="5.7" transform="rotate(0)"><tspan id="SvgjsTspan1036" dy="15" x="75.5"><tspan id="SvgjsTspan1037" style="text-decoration:;">AbstractDispatcher</tspan></tspan></text></g></g><g id="SvgjsG1038" transform="translate(602.598958333333,109.53003274794227)"><path id="SvgjsPath1039" d="M 0 4Q 0 0 4 0L 26 0Q 30 0 30 4L 30 42.37312005323608Q 30 46.37312005323608 26 46.37312005323608L 4 46.37312005323608Q 0 46.37312005323608 0 42.37312005323608L 0 4Z" stroke="rgba(50,50,50,1)" stroke-width="2" fill-opacity="1" fill="#ffffff"></path></g><g id="SvgjsG1040" transform="translate(805.1417083740232,109.54361047983647)"><path id="SvgjsPath1041" d="M 0 0L 103.55247497558616 0L 103.55247497558616 26L 0 26Z" stroke="none" fill="none"></path><g id="SvgjsG1042"><text id="SvgjsText1043" font-family="微软雅黑" text-anchor="middle" font-size="12px" width="98" fill="#323232" font-weight="400" align="middle" anchor="middle" family="微软雅黑" size="12px" weight="400" font-style="" opacity="1" y="3.7" transform="rotate(0)"><tspan id="SvgjsTspan1044" dy="15" x="52"><tspan id="SvgjsTspan1045" style="text-decoration:;">doDispatch(msg)</tspan></tspan></text></g></g><g id="SvgjsG1046" transform="translate(764.4223003498988,109.57344564888015)"><path id="SvgjsPath1047" d="M 0 4Q 0 0 4 0L 26 0Q 30 0 30 4L 30 42.28629425136029Q 30 46.28629425136029 26 46.28629425136029L 4 46.28629425136029Q 0 46.28629425136029 0 42.28629425136029L 0 4Z" stroke="rgba(50,50,50,1)" stroke-width="2" fill-opacity="1" fill="#ffffff"></path></g><g id="SvgjsG1048" transform="translate(1015.6628262113636,26.28899987675146)"><path id="SvgjsPath1049" d="M 90.19442749023455 30L 90.19442749023455 556.4548492431641" stroke-dasharray="3,4" stroke="rgba(50,50,50,1)" stroke-width="2" fill="none"></path><path id="SvgjsPath1050" d="M 0 0L 180.3888549804691 0L 180.3888549804691 30L 0 30Z" stroke="rgba(50,50,50,1)" stroke-width="2" fill-opacity="1" fill="#ffffff"></path><g id="SvgjsG1051"><text id="SvgjsText1052" font-family="微软雅黑" text-anchor="middle" font-size="12px" width="144" fill="#323232" font-weight="400" align="middle" anchor="middle" family="微软雅黑" size="12px" weight="400" font-style="" opacity="1" y="5.7" transform="rotate(0)"><tspan id="SvgjsTspan1053" dy="15" x="90.5"><tspan id="SvgjsTspan1054" style="text-decoration:;">ServiceActivatingHandler</tspan></tspan></text></g></g><g id="SvgjsG1055" transform="translate(918.9674299028185,111.19249730352567)"><path id="SvgjsPath1056" d="M 0 4Q 0 0 4 0L 26 0Q 30 0 30 4L 30 51.14594293261342Q 30 55.14594293261342 26 55.14594293261342L 4 55.14594293261342Q 0 55.14594293261342 0 51.14594293261342L 0 4Z" stroke="rgba(50,50,50,1)" stroke-width="2" fill-opacity="1" fill="#ffffff"></path></g><g id="SvgjsG1057"><path id="SvgjsPath1058" d="M793.9240138841711 135.5056371784529L856.4457218934948 135.5056371784529L856.4457218934948 135.65008739154496L918.9674299028185 135.65008739154496" stroke="#323232" stroke-width="2" fill="none" marker-end="url(#SvgjsMarker1059)"></path></g><g id="SvgjsG1061"><path id="SvgjsPath1062" d="M632.2248164585657 132.358413696289L698.4594999040876 132.358413696289L698.4594999040876 132.76030001797523L764.6941833496094 132.76030001797523" stroke="#323232" stroke-width="2" fill="none" marker-end="url(#SvgjsMarker1063)"></path></g><g id="SvgjsG1065" transform="translate(628.4223003498988,89.4914349288911)"><path id="SvgjsPath1066" d="M 0 0L 136 0L 136 26L 0 26Z" stroke="none" fill="none"></path><g id="SvgjsG1067"><text id="SvgjsText1068" font-family="微软雅黑" text-anchor="middle" font-size="12px" width="128" fill="#323232" font-weight="400" align="middle" anchor="middle" family="微软雅黑" size="12px" weight="400" font-style="" opacity="1" y="3.7" transform="rotate(0)"><tspan id="SvgjsTspan1069" dy="15" x="68"><tspan id="SvgjsTspan1070" style="text-decoration:;">doSend(msg, timeout)</tspan></tspan></text></g></g><g id="SvgjsG1071"><path id="SvgjsPath1072" d="M948.7079046037458 136.617445054945L1020.1534467273284 136.617445054945L1020.1534467273284 136.26633978850828L1091.5989888509112 136.26633978850828" stroke="#323232" stroke-width="2" fill="none" marker-end="url(#SvgjsMarker1073)"></path></g><g id="SvgjsG1075" transform="translate(928.2519356409703,85.4914349288911)"><path id="SvgjsPath1076" d="M 0 0L 146.4999999999999 0L 146.4999999999999 40L 0 40Z" stroke="none" fill="none"></path><g id="SvgjsG1077"><text id="SvgjsText1078" font-family="微软雅黑" text-anchor="middle" font-size="12px" width="125" fill="#323232" font-weight="400" align="middle" anchor="middle" family="微软雅黑" size="12px" weight="400" font-style="" opacity="1" y="3.2" transform="rotate(0)"><tspan id="SvgjsTspan1079" dy="15" x="73.5"><tspan id="SvgjsTspan1080" style="text-decoration:;">tryOptimizedDispatch</tspan></tspan><tspan id="SvgjsTspan1081" dy="15" x="73.5"><tspan id="SvgjsTspan1082" style="text-decoration:;">(msg)</tspan></tspan></text></g></g><g id="SvgjsG1083" transform="translate(1205.0377262669829,25.35083956879396)"><path id="SvgjsPath1084" d="M 111.37101171496101 30L 111.37101171496101 558.3311698590791" stroke-dasharray="3,4" stroke="rgba(50,50,50,1)" stroke-width="2" fill="none"></path><path id="SvgjsPath1085" d="M 0 0L 222.74202342992203 0L 222.74202342992203 30L 0 30Z" stroke="rgba(50,50,50,1)" stroke-width="2" fill-opacity="1" fill="#ffffff"></path><g id="SvgjsG1086"><text id="SvgjsText1087" font-family="微软雅黑" text-anchor="middle" font-size="12px" width="202" fill="#323232" font-weight="400" align="middle" anchor="middle" family="微软雅黑" size="12px" weight="400" font-style="" opacity="1" y="5.7" transform="rotate(0)"><tspan id="SvgjsTspan1088" dy="15" x="111.5"><tspan id="SvgjsTspan1089" style="text-decoration:;">MethodInvokingMessageProcessor</tspan></tspan></text></g></g><g id="SvgjsG1090" transform="translate(1302.3364705103993,162.9041092000284)"><path id="SvgjsPath1091" d="M 0 4Q 0 0 4 0L 26 0Q 30 0 30 4L 30 51.14594293261342Q 30 55.14594293261342 26 55.14594293261342L 4 55.14594293261342Q 0 55.14594293261342 0 51.14594293261342L 0 4Z" stroke="rgba(50,50,50,1)" stroke-width="2" fill-opacity="1" fill="#ffffff"></path></g><g id="SvgjsG1092" transform="translate(1130.3571392661665,93.34295046967549)"><path id="SvgjsPath1093" d="M 0 0L 129.700710964657 0L 129.700710964657 26L 0 26Z" stroke="none" fill="none"></path><g id="SvgjsG1094"><text id="SvgjsText1095" font-family="微软雅黑" text-anchor="middle" font-size="12px" width="122" fill="#323232" font-weight="400" align="middle" anchor="middle" family="微软雅黑" size="12px" weight="400" font-style="" opacity="1" y="3.7" transform="rotate(0)"><tspan id="SvgjsTspan1096" dy="15" x="65"><tspan id="SvgjsTspan1097" style="text-decoration:;">handleMessage(msg)</tspan></tspan></text></g></g><g id="SvgjsG1098" transform="translate(1092.9935029025305,109.54361047983647)"><path id="SvgjsPath1099" d="M 0 4Q 0 0 4 0L 26 0Q 30 0 30 4L 30 109.78811365513815Q 30 113.78811365513815 26 113.78811365513815L 4 113.78811365513815Q 0 113.78811365513815 0 109.78811365513815L 0 4Z" stroke="rgba(50,50,50,1)" stroke-width="2" fill-opacity="1" fill="#ffffff"></path></g><g id="SvgjsG1100" transform="translate(1155.733689976193,127.79331941505828)"><path id="SvgjsPath1101" d="M 0 0L 152.39720338094594 0L 152.39720338094594 31.14838697606848L 0 31.14838697606848Z" stroke="none" fill="none"></path><g id="SvgjsG1102"><text id="SvgjsText1103" font-family="微软雅黑" text-anchor="middle" font-size="12px" width="151" fill="#323232" font-weight="400" align="middle" anchor="middle" family="微软雅黑" size="12px" weight="400" font-style="" opacity="1" y="-1.22580651196576" transform="rotate(0)"><tspan id="SvgjsTspan1104" dy="15" x="76.5"><tspan id="SvgjsTspan1105" style="text-decoration:;">-&gt;handleRequestMessage</tspan></tspan><tspan id="SvgjsTspan1106" dy="15" x="76.5"><tspan id="SvgjsTspan1107" style="text-decoration:;">(msg)</tspan></tspan></text></g></g><g id="SvgjsG1108"><path id="SvgjsPath1109" d="M1120.8805356233015 190.28824587410506L1210.3067733556984 190.28824587410506L1210.3067733556984 190.60445804195803L1299.7330110880953 190.60445804195803" stroke="#323232" stroke-width="2" fill="none" marker-end="url(#SvgjsMarker1110)"></path></g><g id="SvgjsG1112" transform="translate(1149.3440767910222,167.29294209753462)"><path id="SvgjsPath1113" d="M 0 0L 141.90370247856163 0L 141.90370247856163 21.636996870279233L 0 21.636996870279233Z" stroke="none" fill="none"></path><g id="SvgjsG1114"><text id="SvgjsText1115" font-family="微软雅黑" text-anchor="middle" font-size="12px" width="127" fill="#323232" font-weight="400" align="middle" anchor="middle" family="微软雅黑" size="12px" weight="400" font-style="" opacity="1" y="1.518498435139617" transform="rotate(0)"><tspan id="SvgjsTspan1116" dy="15" x="71"><tspan id="SvgjsTspan1117" style="text-decoration:;">processMessage(msg)</tspan></tspan></text></g></g><g id="SvgjsG1118" transform="translate(1436.806258716531,25.13727169460836)"><path id="SvgjsPath1119" d="M 81.16476393008679 30L 81.16476393008679 557.0334662825487" stroke-dasharray="3,4" stroke="rgba(50,50,50,1)" stroke-width="2" fill="none"></path><path id="SvgjsPath1120" d="M 0 0L 162.32952786017358 0L 162.32952786017358 30L 0 30Z" stroke="rgba(50,50,50,1)" stroke-width="2" fill-opacity="1" fill="#ffffff"></path><g id="SvgjsG1121"><text id="SvgjsText1122" font-family="微软雅黑" text-anchor="middle" font-size="12px" width="108" fill="#323232" font-weight="400" align="middle" anchor="middle" family="微软雅黑" size="12px" weight="400" font-style="" opacity="1" y="-1.7999999999999998" transform="rotate(0)"><tspan id="SvgjsTspan1123" dy="15" x="81.5"><tspan id="SvgjsTspan1124" style="text-decoration:;">MessagingMethod</tspan></tspan><tspan id="SvgjsTspan1125" dy="15" x="81.5"><tspan id="SvgjsTspan1126" style="text-decoration:;">InvokerHelper</tspan></tspan></text></g></g><g id="SvgjsG1127" transform="translate(1502.6388721377805,162.9041092000284)"><path id="SvgjsPath1128" d="M 0 4Q 0 0 4 0L 26 0Q 30 0 30 4L 30 108.75362344564215Q 30 112.75362344564215 26 112.75362344564215L 4 112.75362344564215Q 0 112.75362344564215 0 108.75362344564215L 0 4Z" stroke="rgba(50,50,50,1)" stroke-width="2" fill-opacity="1" fill="#ffffff"></path></g><g id="SvgjsG1129"><path id="SvgjsPath1130" d="M1332.004163995312 190.43894408767616L1416.4790661950992 190.43894408767616L1416.4790661950992 190.43894408767616L1500.9539683948863 190.43894408767616" stroke="#323232" stroke-width="2" fill="none" marker-end="url(#SvgjsMarker1131)"></path></g><g id="SvgjsG1133" transform="translate(1342.1622779894697,159.35431260234097)"><path id="SvgjsPath1134" d="M 0 0L 137.0216767282193 0L 137.0216767282193 20.358189787234352L 0 20.358189787234352Z" stroke="none" fill="none"></path><g id="SvgjsG1135"><text id="SvgjsText1136" font-family="微软雅黑" text-anchor="middle" font-size="12px" width="129" fill="#323232" font-weight="400" align="middle" anchor="middle" family="微软雅黑" size="12px" weight="400" font-style="" opacity="1" y="0.8790948936171761" transform="rotate(0)"><tspan id="SvgjsTspan1137" dy="15" x="69"><tspan id="SvgjsTspan1138" style="text-decoration:;">delegate.process(msg)</tspan></tspan></text></g></g><g id="SvgjsG1139" transform="translate(1333.2976473349981,191.7288189231065)"><path id="SvgjsPath1140" d="M 0 0L 175.99424543284363 0L 175.99424543284363 29.88293797637101L 0 29.88293797637101Z" stroke="none" fill="none"></path><g id="SvgjsG1141"><text id="SvgjsText1142" font-family="微软雅黑" text-anchor="middle" font-size="12px" width="173" fill="#323232" font-weight="400" align="middle" anchor="middle" family="微软雅黑" size="12px" weight="400" font-style="" opacity="1" y="-1.8585310118144944" transform="rotate(0)"><tspan id="SvgjsTspan1143" dy="15" x="88"><tspan id="SvgjsTspan1144" style="text-decoration:;">targetObject </tspan></tspan><tspan id="SvgjsTspan1145" dy="15" x="88"><tspan id="SvgjsTspan1146" style="text-decoration:;">is helloService.sayHello(name)</tspan></tspan></text></g></g><g id="SvgjsG1147" transform="translate(1514.71771567101,118.84299431256366)"><path id="SvgjsPath1148" d="M 0 0L 101.76656037805378 0L 101.76656037805378 41.93120146334215L 0 41.93120146334215Z" stroke="none" fill="none"></path><g id="SvgjsG1149"><text id="SvgjsText1150" font-family="微软雅黑" text-anchor="middle" font-size="12px" width="90" fill="#323232" font-weight="400" align="middle" anchor="middle" family="微软雅黑" size="12px" weight="400" font-style="" opacity="1" y="-3.3343992683289256" transform="rotate(0)"><tspan id="SvgjsTspan1151" dy="15" x="51"><tspan id="SvgjsTspan1152" style="text-decoration:;">invoke</tspan><tspan id="SvgjsTspan1153" style="text-decoration:;font-size: inherit;">(method, </tspan></tspan><tspan id="SvgjsTspan1154" dy="15" x="51"><tspan id="SvgjsTspan1155" style="text-decoration:;font-size: inherit;">parameters)</tspan></tspan><tspan id="SvgjsTspan1156" dy="15" x="51"><tspan id="SvgjsTspan1157" style="text-decoration:;">target bean</tspan></tspan></text></g></g><g id="SvgjsG1158" transform="translate(1606.3895920498626,25.13727169460836)"><path id="SvgjsPath1159" d="M 64.55491544523909 30L 64.55491544523909 555.7973296394792" stroke-dasharray="3,4" stroke="rgba(50,50,50,1)" stroke-width="2" fill="none"></path><path id="SvgjsPath1160" d="M 0 0L 129.10983089047818 0L 129.10983089047818 30L 0 30Z" stroke="rgba(50,50,50,1)" stroke-width="2" fill-opacity="1" fill="#ffffff"></path><g id="SvgjsG1161"><text id="SvgjsText1162" font-family="微软雅黑" text-anchor="middle" font-size="12px" width="104" fill="#323232" font-weight="400" align="middle" anchor="middle" family="微软雅黑" size="12px" weight="400" font-style="" opacity="1" y="-1.7999999999999998" transform="rotate(0)"><tspan id="SvgjsTspan1163" dy="15" x="65"><tspan id="SvgjsTspan1164" style="text-decoration:;">AbstractMessage</tspan></tspan><tspan id="SvgjsTspan1165" dy="15" x="65"><tspan id="SvgjsTspan1166" style="text-decoration:;">ProducingHandler</tspan></tspan></text></g></g><g id="SvgjsG1167" transform="translate(1655.943622902176,198.33122200210568)"><path id="SvgjsPath1168" d="M 0 4Q 0 0 4 0L 26 0Q 30 0 30 4L 30 199.02107681649431Q 30 203.02107681649431 26 203.02107681649431L 4 203.02107681649431Q 0 203.02107681649431 0 199.02107681649431L 0 4Z" stroke="rgba(50,50,50,1)" stroke-width="2" fill-opacity="1" fill="#ffffff"></path></g><g id="SvgjsG1169" transform="translate(329.2051139651462,352.97180206427)"><path id="SvgjsPath1170" d="M 0 0L 112.35374537054219 0L 112.35374537054219 27.05962759125896L 0 27.05962759125896Z" stroke="none" fill="none"></path><g id="SvgjsG1171"><text id="SvgjsText1172" font-family="微软雅黑" text-anchor="middle" font-size="12px" width="111" fill="#323232" font-weight="400" align="middle" anchor="middle" family="微软雅黑" size="12px" weight="400" font-style="" opacity="1" y="-3.2701862043705203" transform="rotate(0)"><tspan id="SvgjsTspan1173" dy="15" x="56.5"><tspan id="SvgjsTspan1174" style="text-decoration:;">channel</tspan></tspan><tspan id="SvgjsTspan1175" dy="15" x="56.5"><tspan id="SvgjsTspan1176" style="text-decoration:;">.send(msg,timeout)</tspan></tspan></text></g></g><g id="SvgjsG1177" transform="translate(320.23242194412927,405.95898456581136)"><path id="SvgjsPath1178" d="M 0 0L 101.96768254333699 0L 101.96768254333699 21.147218462805597L 0 21.147218462805597Z" stroke="none" fill="none"></path><g id="SvgjsG1179"><text id="SvgjsText1180" font-family="微软雅黑" text-anchor="middle" font-size="12px" width="94" fill="#323232" font-weight="400" align="middle" anchor="middle" family="微软雅黑" size="12px" weight="400" font-style="" opacity="1" y="1.2736092314027987" transform="rotate(0)"><tspan id="SvgjsTspan1181" dy="15" x="51"><tspan id="SvgjsTspan1182" style="text-decoration:;">receive(timeout)</tspan></tspan></text></g></g><g id="SvgjsG1183" transform="translate(137.7180023193359,25.01230297398888)"><path id="SvgjsPath1184" d="M 54.032107687404036 30L 54.032107687404036 562.7333118633264" stroke-dasharray="3,4" stroke="rgba(50,50,50,1)" stroke-width="2" fill="none"></path><path id="SvgjsPath1185" d="M 0 0L 108.06421537480807 0L 108.06421537480807 30L 0 30Z" stroke="rgba(50,50,50,1)" stroke-width="2" fill-opacity="1" fill="#ffffff"></path><g id="SvgjsG1186"><text id="SvgjsText1187" font-family="微软雅黑" text-anchor="middle" font-size="12px" width="81" fill="#323232" font-weight="400" align="middle" anchor="middle" family="微软雅黑" size="12px" weight="400" font-style="" opacity="1" y="-1.7999999999999998" transform="rotate(0)"><tspan id="SvgjsTspan1188" dy="15" x="54.5"><tspan id="SvgjsTspan1189" style="text-decoration:;">DirectChannel</tspan></tspan><tspan id="SvgjsTspan1190" dy="15" x="54.5"><tspan id="SvgjsTspan1191" style="text-decoration:;">Input</tspan></tspan></text></g></g><g id="SvgjsG1192" transform="translate(175.64496060293115,109.54361047983647)"><path id="SvgjsPath1193" d="M 0 4Q 0 0 4 0L 26 0Q 30 0 30 4L 30 292.4153740859749Q 30 296.4153740859749 26 296.4153740859749L 4 296.4153740859749Q 0 296.4153740859749 0 292.4153740859749L 0 4Z" stroke="rgba(50,50,50,1)" stroke-width="2" fill-opacity="1" fill="#ffffff"></path></g><g id="SvgjsG1194" transform="translate(368.0989583333334,25.58490591200716)"><path id="SvgjsPath1195" d="M 80.64285532633454 30L 80.64285532633454 557.8630371726526" stroke-dasharray="3,4" stroke="rgba(50,50,50,1)" stroke-width="2" fill="none"></path><path id="SvgjsPath1196" d="M 0 0L 161.28571065266908 0L 161.28571065266908 30L 0 30Z" stroke="rgba(50,50,50,1)" stroke-width="2" fill-opacity="1" fill="#ffffff"></path><g id="SvgjsG1197"><text id="SvgjsText1198" font-family="微软雅黑" text-anchor="middle" font-size="12px" width="140" fill="#323232" font-weight="400" align="middle" anchor="middle" family="微软雅黑" size="12px" weight="400" font-style="" opacity="1" y="5.7" transform="rotate(0)"><tspan id="SvgjsTspan1199" dy="15" x="81"><tspan id="SvgjsTspan1200" style="text-decoration:;">AbstractPollableChannel</tspan></tspan></text></g></g><g id="SvgjsG1201"><path id="SvgjsPath1202" d="M203.55132293701172 135.95534896850586L403.0751406351724 135.95534896850586L403.0751406351724 135.37017980656591L602.598958333333 135.37017980656591" stroke="#323232" stroke-width="2" fill="none" marker-end="url(#SvgjsMarker1203)"></path></g><g id="SvgjsG1205" transform="translate(291.48954243633835,419.5245940807553)"><path id="SvgjsPath1206" d="M 0 4Q 0 0 4 0L 26 0Q 30 0 30 4L 30 134.14474352608227Q 30 138.14474352608227 26 138.14474352608227L 4 138.14474352608227Q 0 138.14474352608227 0 134.14474352608227L 0 4Z" stroke="rgba(50,50,50,1)" stroke-width="2" fill-opacity="1" fill="#ffffff"></path></g><g id="SvgjsG1207" transform="translate(437.8439962765548,420.404578888589)"><path id="SvgjsPath1208" d="M 0 4Q 0 0 4 0L 26 0Q 30 0 30 4L 30 97.50153773531417Q 30 101.50153773531417 26 101.50153773531417L 4 101.50153773531417Q 0 101.50153773531417 0 97.50153773531417L 0 4Z" stroke="rgba(50,50,50,1)" stroke-width="2" fill-opacity="1" fill="#ffffff"></path></g><g id="SvgjsG1209" transform="translate(326.2175263873804,530.7799004537142)"><path id="SvgjsPath1210" d="M 0 0L 118.32892052607372 0L 118.32892052607372 21.333894313225073L 0 21.333894313225073Z" stroke="none" fill="none"></path><g id="SvgjsG1211"><text id="SvgjsText1212" font-family="微软雅黑" text-anchor="middle" font-size="12px" width="112" fill="#323232" font-weight="400" align="middle" anchor="middle" family="微软雅黑" size="12px" weight="400" font-style="" opacity="1" y="1.3669471566125369" transform="rotate(0)"><tspan id="SvgjsTspan1213" dy="15" x="59.5"><tspan id="SvgjsTspan1214" style="text-decoration:;">doReceive(timeout)</tspan></tspan></text></g></g><g id="SvgjsG1215" transform="translate(200.47450605747662,99.70534896850586)"><path id="SvgjsPath1216" d="M 0 0L 103.07681687953513 0L 103.07681687953513 30.87821941904224L 0 30.87821941904224Z" stroke="none" fill="none"></path><g id="SvgjsG1217"><text id="SvgjsText1218" font-family="微软雅黑" text-anchor="middle" font-size="12px" width="75" fill="#323232" font-weight="400" align="middle" anchor="middle" family="微软雅黑" size="12px" weight="400" font-style="" opacity="1" y="-1.3608902904788804" transform="rotate(0)"><tspan id="SvgjsTspan1219" dy="15" x="52"><tspan id="SvgjsTspan1220" style="text-decoration:;">send(Generic</tspan></tspan><tspan id="SvgjsTspan1221" dy="15" x="52"><tspan id="SvgjsTspan1222" style="text-decoration:;">Message)</tspan></tspan></text></g></g><g id="SvgjsG1223"><path id="SvgjsPath1224" d="M1122.6942138671875 119.0389363720499L1152.6942138671875 119.0389363720499L1152.619666058084 146.80998500453987L1122.619666058084 146.80998500453987" stroke="#323232" stroke-width="2" fill="none" marker-end="url(#SvgjsMarker1225)"></path></g><g id="SvgjsG1227" transform="translate(291.48954243633835,275.65773741404206)"><path id="SvgjsPath1228" d="M 0 4Q 0 0 4 0L 26 0Q 30 0 30 4L 30 126.30124715176936Q 30 130.30124715176936 26 130.30124715176936L 4 130.30124715176936Q 0 130.30124715176936 0 126.30124715176936L 0 4Z" stroke="rgba(50,50,50,1)" stroke-width="2" fill-opacity="1" fill="#ffffff"></path></g><g id="SvgjsG1229" transform="translate(24.990729592063182,25.13727169460836)"><path id="SvgjsPath1230" d="M 54.032107687404036 30L 54.032107687404036 562.7333118633264" stroke-dasharray="3,4" stroke="rgba(50,50,50,1)" stroke-width="2" fill="none"></path><path id="SvgjsPath1231" d="M 0 0L 108.06421537480807 0L 108.06421537480807 30L 0 30Z" stroke="rgba(50,50,50,1)" stroke-width="2" fill-opacity="1" fill="#ffffff"></path><g id="SvgjsG1232"><text id="SvgjsText1233" font-family="微软雅黑" text-anchor="middle" font-size="12px" width="71" fill="#323232" font-weight="400" align="middle" anchor="middle" family="微软雅黑" size="12px" weight="400" font-style="" opacity="1" y="5.7" transform="rotate(0)"><tspan id="SvgjsTspan1234" dy="15" x="54.5"><tspan id="SvgjsTspan1235" style="text-decoration:;">HelloService</tspan></tspan></text></g></g><g id="SvgjsG1236" transform="translate(64.73586969384027,210.00401198238683)"><path id="SvgjsPath1237" d="M 0 4Q 0 0 4 0L 26 0Q 30 0 30 4L 30 75.69135515048026Q 30 79.69135515048026 26 79.69135515048026L 4 79.69135515048026Q 0 79.69135515048026 0 75.69135515048026L 0 4Z" stroke="rgba(50,50,50,1)" stroke-width="2" fill-opacity="1" fill="#ffffff"></path></g><g id="SvgjsG1238"><path id="SvgjsPath1239" d="M93.94094571200283 246.96809440559434L123.94094571200282 246.96809440559434L123.94094571200282 274.2408216783216L93.94094571200283 274.2408216783216" stroke="#323232" stroke-width="2" fill="none" marker-end="url(#SvgjsMarker1240)"></path></g><g id="SvgjsG1242" transform="translate(77.64101426931883,289.84176041035283)"><path id="SvgjsPath1243" d="M 0 0L 101.86758269724866 0L 101.86758269724866 20L 0 20Z" stroke="none" fill="none"></path><g id="SvgjsG1244"><text id="SvgjsText1245" font-family="微软雅黑" text-anchor="middle" font-size="12px" width="89" fill="#323232" font-weight="400" align="middle" anchor="middle" family="微软雅黑" size="12px" weight="400" font-style="" opacity="1" y="0.7000000000000002" transform="rotate(0)"><tspan id="SvgjsTspan1246" dy="15" x="51"><tspan id="SvgjsTspan1247" style="text-decoration:;">sayHello(name)</tspan></tspan></text></g></g><g id="SvgjsG1248"><path id="SvgjsPath1249" d="M1685.3370542526245 270.1081109700936L1715.3370542526245 270.1081109700936L1714.8520244320703 306.9204242591294L1684.8520244320703 306.9204242591294" stroke="#323232" stroke-width="2" fill="none" marker-end="url(#SvgjsMarker1250)"></path></g><g id="SvgjsG1252" transform="translate(1609.423048713427,161.0364074359129)"><path id="SvgjsPath1253" d="M 0 0L 102.72727272727298 0L 102.72727272727298 37.571610087510265L 0 37.571610087510265Z" stroke="none" fill="none"></path><g id="SvgjsG1254"><text id="SvgjsText1255" font-family="微软雅黑" text-anchor="middle" font-size="12px" width="98" fill="#323232" font-weight="400" align="middle" anchor="middle" family="微软雅黑" size="12px" weight="400" font-style="" opacity="1" y="1.985805043755133" transform="rotate(0)"><tspan id="SvgjsTspan1256" dy="15" x="51.5"><tspan id="SvgjsTspan1257" style="text-decoration:;">sendOutput</tspan></tspan><tspan id="SvgjsTspan1258" dy="15" x="51.5"><tspan id="SvgjsTspan1259" style="text-decoration:;">(outputMessage)</tspan></tspan></text></g></g><g id="SvgjsG1260"><path id="SvgjsPath1261" d="M1532.360870361328 253.99106597900385L1593.2239623069763 253.99106597900385L1593.2239623069763 253.99106597900385L1654.0870542526245 253.99106597900385" stroke="#323232" stroke-width="2" fill="none" marker-end="url(#SvgjsMarker1262)"></path></g><g id="SvgjsG1264"><path id="SvgjsPath1265" d="M1501.8846944173174 234.8244040807088L798.2537288665769 234.8244040807088L798.2537288665769 234.8244040807088L94.62276331583658 234.8244040807088" stroke-dasharray="3,3" stroke="#323232" stroke-width="2" fill="none" marker-end="url(#SvgjsMarker1266)"></path></g><g id="SvgjsG1268" transform="translate(1575.9532085748629,319.61664292861735)"><path id="SvgjsPath1269" d="M 0 0L 169.7996584061866 0L 169.7996584061866 27.172686240833173L 0 27.172686240833173Z" stroke="none" fill="none"></path><g id="SvgjsG1270"><text id="SvgjsText1271" font-family="微软雅黑" text-anchor="middle" font-size="12px" width="151" fill="#323232" font-weight="400" align="middle" anchor="middle" family="微软雅黑" size="12px" weight="400" font-style="" opacity="1" y="-3.2136568795834135" transform="rotate(0)"><tspan id="SvgjsTspan1272" dy="15" x="85"><tspan id="SvgjsTspan1273" style="text-decoration:;">messageTemplate</tspan></tspan><tspan id="SvgjsTspan1274" dy="15" x="85"><tspan id="SvgjsTspan1275" style="text-decoration:;">.send(replayChannel, msg)</tspan></tspan></text></g></g><g id="SvgjsG1276"><path id="SvgjsPath1277" d="M320.4344551780007 334.75252239514106L350.4344551780007 334.75252239514106L351.34354608709157 363.43108865561976L321.34354608709157 363.43108865561976" stroke="#323232" stroke-width="2" fill="none" marker-end="url(#SvgjsMarker1278)"></path></g><g id="SvgjsG1280"><path id="SvgjsPath1281" d="M320.4560902913411 426.2804487179487L379.54339006212024 426.2804487179487L379.54339006212024 426.5582264957265L438.6306898328993 426.5582264957265" stroke="#323232" stroke-width="2" fill="none" marker-end="url(#SvgjsMarker1282)"></path></g><g id="SvgjsG1284"><path id="SvgjsPath1285" d="M467.5195787217882 437.66933760683764L497.5195787217882 437.66933760683764L497.5195787217882 459.8915598290599L467.5195787217882 459.8915598290599" stroke="#323232" stroke-width="2" fill="none" marker-end="url(#SvgjsMarker1286)"></path></g><g id="SvgjsG1288"><path id="SvgjsPath1289" d="M438.6306898328993 476.55822649572656L380.05204757536296 476.55822649572656L380.05204757536296 476.35620629370624L321.4734053178267 476.35620629370624" stroke-dasharray="3,3" stroke="#323232" stroke-width="2" fill="none" marker-end="url(#SvgjsMarker1290)"></path></g><g id="SvgjsG1292" transform="translate(469.49206722115053,466.7923178991448)"><path id="SvgjsPath1293" d="M 0 0L 101.96768254333699 0L 101.96768254333699 21.147218462805597L 0 21.147218462805597Z" stroke="none" fill="none"></path><g id="SvgjsG1294"><text id="SvgjsText1295" font-family="微软雅黑" text-anchor="middle" font-size="12px" width="94" fill="#323232" font-weight="400" align="middle" anchor="middle" family="微软雅黑" size="12px" weight="400" font-style="" opacity="1" y="1.2736092314027987" transform="rotate(0)"><tspan id="SvgjsTspan1296" dy="15" x="51"><tspan id="SvgjsTspan1297" style="text-decoration:;">receive(timeout)</tspan></tspan></text></g></g><g id="SvgjsG1298"><path id="SvgjsPath1299" d="M321.28942362467444 495.44712810027283L351.28942362467444 495.44712810027283L351.28942362467444 527.9471281002727L321.28942362467444 527.9471281002727" stroke="#323232" stroke-width="2" fill="none" marker-end="url(#SvgjsMarker1300)"></path></g><g id="SvgjsG1302"><path id="SvgjsPath1303" d="M1655.943622902176 307.4337450293261L988.578650544383 307.4337450293261L988.578650544383 307.4337450293261L321.21367818659 307.4337450293261" stroke-dasharray="3,3" stroke="#323232" stroke-width="2" fill="none" marker-end="url(#SvgjsMarker1304)"></path></g><g id="SvgjsG1306"><path id="SvgjsPath1307" d="M291.9798889160156 383.2767791748047L247.47988891601562 383.2767791748047L247.47988891601562 383.2767791748047L202.97988891601562 383.2767791748047" stroke-dasharray="3,3" stroke="#323232" stroke-width="2" fill="none" marker-end="url(#SvgjsMarker1308)"></path></g></svg>