<svg id="SvgjsSvg1892" width="1434.328125" height="614" xmlns="http://www.w3.org/2000/svg" version="1.1" xmlns:xlink="http://www.w3.org/1999/xlink" xmlns:svgjs="http://svgjs.com/svgjs"><defs id="SvgjsDefs1893"><marker id="SvgjsMarker2012" markerWidth="16" markerHeight="12" refX="16" refY="6" viewBox="0 0 16 12" orient="auto" markerUnits="userSpaceOnUse"><path id="SvgjsPath2013" d="M0,2 L14,6 L0,11 L0,2" fill="#323232" stroke="#323232" stroke-width="2"></path></marker><marker id="SvgjsMarker2032" markerWidth="16" markerHeight="12" refX="16" refY="6" viewBox="0 0 16 12" orient="auto" markerUnits="userSpaceOnUse"><path id="SvgjsPath2033" d="M0,2 L14,6 L0,11 L0,2" fill="#323232" stroke="#323232" stroke-width="2"></path></marker><marker id="SvgjsMarker2048" markerWidth="16" markerHeight="12" refX="16" refY="6" viewBox="0 0 16 12" orient="auto" markerUnits="userSpaceOnUse"><path id="SvgjsPath2049" d="M0,2 L14,6 L0,11 L0,2" fill="#323232" stroke="#323232" stroke-width="2"></path></marker><marker id="SvgjsMarker2052" markerWidth="16" markerHeight="12" refX="16" refY="6" viewBox="0 0 16 12" orient="auto" markerUnits="userSpaceOnUse"><path id="SvgjsPath2053" d="M0,2 L14,6 L0,11 L0,2" fill="#323232" stroke="#323232" stroke-width="2"></path></marker><marker id="SvgjsMarker2056" markerWidth="16" markerHeight="12" refX="16" refY="6" viewBox="0 0 16 12" orient="auto" markerUnits="userSpaceOnUse"><path id="SvgjsPath2057" d="M0,2 L14,6 L0,11 L0,2" fill="#323232" stroke="#323232" stroke-width="2"></path></marker><marker id="SvgjsMarker2060" markerWidth="16" markerHeight="12" refX="16" refY="6" viewBox="0 0 16 12" orient="auto" markerUnits="userSpaceOnUse"><path id="SvgjsPath2061" d="M0,2 L14,6 L0,11 L0,2" fill="#323232" stroke="#323232" stroke-width="2"></path></marker><marker id="SvgjsMarker2072" markerWidth="16" markerHeight="12" refX="16" refY="6" viewBox="0 0 16 12" orient="auto" markerUnits="userSpaceOnUse"><path id="SvgjsPath2073" d="M0,2 L14,6 L0,11 L0,2" fill="#323232" stroke="#323232" stroke-width="2"></path></marker><marker id="SvgjsMarker2076" markerWidth="16" markerHeight="12" refX="16" refY="6" viewBox="0 0 16 12" orient="auto" markerUnits="userSpaceOnUse"><path id="SvgjsPath2077" d="M0,2 L14,6 L0,11 L0,2" fill="#323232" stroke="#323232" stroke-width="2"></path></marker><marker id="SvgjsMarker2088" markerWidth="16" markerHeight="12" refX="16" refY="6" viewBox="0 0 16 12" orient="auto" markerUnits="userSpaceOnUse"><path id="SvgjsPath2089" d="M0,2 L14,6 L0,11 L0,2" fill="#323232" stroke="#323232" stroke-width="2"></path></marker><marker id="SvgjsMarker2092" markerWidth="16" markerHeight="12" refX="16" refY="6" viewBox="0 0 16 12" orient="auto" markerUnits="userSpaceOnUse"><path id="SvgjsPath2093" d="M0,2 L14,6 L0,11 L0,2" fill="#323232" stroke="#323232" stroke-width="2"></path></marker><marker id="SvgjsMarker2096" markerWidth="16" markerHeight="12" refX="16" refY="6" viewBox="0 0 16 12" orient="auto" markerUnits="userSpaceOnUse"><path id="SvgjsPath2097" d="M0,2 L14,6 L0,11 L0,2" fill="#323232" stroke="#323232" stroke-width="2"></path></marker><marker id="SvgjsMarker2111" markerWidth="16" markerHeight="12" refX="16" refY="6" viewBox="0 0 16 12" orient="auto" markerUnits="userSpaceOnUse"><path id="SvgjsPath2112" d="M0,2 L14,6 L0,11 L0,2" fill="#323232" stroke="#323232" stroke-width="2"></path></marker><marker id="SvgjsMarker2123" markerWidth="16" markerHeight="12" refX="16" refY="6" viewBox="0 0 16 12" orient="auto" markerUnits="userSpaceOnUse"><path id="SvgjsPath2124" d="M0,2 L14,6 L0,11 L0,2" fill="#323232" stroke="#323232" stroke-width="2"></path></marker><marker id="SvgjsMarker2127" markerWidth="16" markerHeight="12" refX="16" refY="6" viewBox="0 0 16 12" orient="auto" markerUnits="userSpaceOnUse"><path id="SvgjsPath2128" d="M0,2 L14,6 L0,11 L0,2" fill="#323232" stroke="#323232" stroke-width="2"></path></marker><marker id="SvgjsMarker2131" markerWidth="16" markerHeight="12" refX="16" refY="6" viewBox="0 0 16 12" orient="auto" markerUnits="userSpaceOnUse"><path id="SvgjsPath2132" d="M0,2 L14,6 L0,11 L0,2" fill="#323232" stroke="#323232" stroke-width="2"></path></marker></defs><g id="SvgjsG1894" transform="translate(557.5066833496094,25.013361598830215)"><path id="SvgjsPath1895" d="M 89.63095801217202 30L 89.63095801217202 563.5759051791892" stroke-dasharray="3,4" stroke="rgba(50,50,50,1)" stroke-width="2" fill="none"></path><path id="SvgjsPath1896" d="M 0 0L 179.26191602434403 0L 179.26191602434403 30L 0 30Z" stroke="rgba(50,50,50,1)" stroke-width="2" fill-opacity="1" fill="#ffffff"></path><g id="SvgjsG1897"><text id="SvgjsText1898" font-family="微软雅黑" text-anchor="middle" font-size="12px" width="158" fill="#323232" font-weight="400" align="middle" anchor="middle" family="微软雅黑" size="12px" weight="400" font-style="" opacity="1" y="5.7" transform="rotate(0)"><tspan id="SvgjsTspan1899" dy="15" x="90"><tspan id="SvgjsTspan1900" style="text-decoration:;">MessagingGatewaySupport</tspan></tspan></text></g></g><g id="SvgjsG1901" transform="translate(744.5443609328494,25.525982477473917)"><path id="SvgjsPath1902" d="M 89.82245454334094 30L 89.82245454334094 558.1257953090553" stroke-dasharray="3,4" stroke="rgba(50,50,50,1)" stroke-width="2" fill="none"></path><path id="SvgjsPath1903" d="M 0 0L 179.64490908668188 0L 179.64490908668188 30L 0 30Z" stroke="rgba(50,50,50,1)" stroke-width="2" fill-opacity="1" fill="#ffffff"></path><g id="SvgjsG1904"><text id="SvgjsText1905" font-family="微软雅黑" text-anchor="middle" font-size="12px" width="160" fill="#323232" font-weight="400" align="middle" anchor="middle" family="微软雅黑" size="12px" weight="400" font-style="" opacity="1" y="5.7" transform="rotate(0)"><tspan id="SvgjsTspan1906" dy="15" x="90"><tspan id="SvgjsTspan1907" style="text-decoration:;">GenericMessagingTemplate</tspan></tspan></text></g></g><g id="SvgjsG1908" transform="translate(931.6892361111111,25.59280683711509)"><path id="SvgjsPath1909" d="M 75.25692749023449 30L 75.25692749023449 561.1111297607422" stroke-dasharray="3,4" stroke="rgba(50,50,50,1)" stroke-width="2" fill="none"></path><path id="SvgjsPath1910" d="M 0 0L 150.51385498046898 0L 150.51385498046898 30L 0 30Z" stroke="rgba(50,50,50,1)" stroke-width="2" fill-opacity="1" fill="#ffffff"></path><g id="SvgjsG1911"><text id="SvgjsText1912" font-family="微软雅黑" text-anchor="middle" font-size="12px" width="122" fill="#323232" font-weight="400" align="middle" anchor="middle" family="微软雅黑" size="12px" weight="400" font-style="" opacity="1" y="5.7" transform="rotate(0)"><tspan id="SvgjsTspan1913" dy="15" x="75.5"><tspan id="SvgjsTspan1914" style="text-decoration:;">UnicastingDispatcher</tspan></tspan></text></g></g><g id="SvgjsG1915" transform="translate(632.1376413617813,132.28693630251743)"><path id="SvgjsPath1916" d="M 0 4Q 0 0 4 0L 26 0Q 30 0 30 4L 30 282.77944941747165Q 30 286.77944941747165 26 286.77944941747165L 4 286.77944941747165Q 0 286.77944941747165 0 282.77944941747165L 0 4Z" stroke="rgba(50,50,50,1)" stroke-width="2" fill-opacity="1" fill="#ffffff"></path></g><g id="SvgjsG1917" transform="translate(819.561964611328,135.3689470225065)"><path id="SvgjsPath1918" d="M 0 4Q 0 0 4 0L 26 0Q 30 0 30 4L 30 276.6154279774935Q 30 280.6154279774935 26 280.6154279774935L 4 280.6154279774935Q 0 280.6154279774935 0 276.6154279774935L 0 4Z" stroke="rgba(50,50,50,1)" stroke-width="2" fill-opacity="1" fill="#ffffff"></path></g><g id="SvgjsG1919" transform="translate(1093.5308817669195,25.525982477473917)"><path id="SvgjsPath1920" d="M 80.01171647619344 30L 80.01171647619344 556.1169726638304" stroke-dasharray="3,4" stroke="rgba(50,50,50,1)" stroke-width="2" fill="none"></path><path id="SvgjsPath1921" d="M 0 0L 160.02343295238688 0L 160.02343295238688 30L 0 30Z" stroke="rgba(50,50,50,1)" stroke-width="2" fill-opacity="1" fill="#ffffff"></path><g id="SvgjsG1922"><text id="SvgjsText1923" font-family="微软雅黑" text-anchor="middle" font-size="12px" width="138" fill="#323232" font-weight="400" align="middle" anchor="middle" family="微软雅黑" size="12px" weight="400" font-style="" opacity="1" y="5.7" transform="rotate(0)"><tspan id="SvgjsTspan1924" dy="15" x="80.5"><tspan id="SvgjsTspan1925" style="text-decoration:;">DefaultMessageHandler</tspan></tspan></text></g></g><g id="SvgjsG1926" transform="translate(991.9393102360689,230.2369751945816)"><path id="SvgjsPath1927" d="M 0 4Q 0 0 4 0L 26 0Q 30 0 30 4L 30 44.15351785358064Q 30 48.15351785358064 26 48.15351785358064L 4 48.15351785358064Q 0 48.15351785358064 0 44.15351785358064L 0 4Z" stroke="rgba(50,50,50,1)" stroke-width="2" fill-opacity="1" fill="#ffffff"></path></g><g id="SvgjsG1928" transform="translate(172.15863984473742,117.92936968949536)"><path id="SvgjsPath1929" d="M 0 0L 136 0L 136 26L 0 26Z" stroke="none" fill="none"></path><g id="SvgjsG1930"><text id="SvgjsText1931" font-family="微软雅黑" text-anchor="middle" font-size="12px" width="75" fill="#323232" font-weight="400" align="middle" anchor="middle" family="微软雅黑" size="12px" weight="400" font-style="" opacity="1" y="-3.8" transform="rotate(0)"><tspan id="SvgjsTspan1932" dy="15" x="68"><tspan id="SvgjsTspan1933" style="text-decoration:;">send(Generic</tspan></tspan><tspan id="SvgjsTspan1934" dy="15" x="68"><tspan id="SvgjsTspan1935" style="text-decoration:;">Message)</tspan></tspan></text></g></g><g id="SvgjsG1936" transform="translate(1155.4933103711435,230.5947364946956)"><path id="SvgjsPath1937" d="M 0 4Q 0 0 4 0L 26 0Q 30 0 30 4L 30 43.4379952533526Q 30 47.4379952533526 26 47.4379952533526L 4 47.4379952533526Q 0 47.4379952533526 0 43.4379952533526L 0 4Z" stroke="rgba(50,50,50,1)" stroke-width="2" fill-opacity="1" fill="#ffffff"></path></g><g id="SvgjsG1938" transform="translate(1030.4533245298592,222.76618680210674)"><path id="SvgjsPath1939" d="M 0 0L 109.45022635989767 0L 109.45022635989767 23.341060551408106L 0 23.341060551408106Z" stroke="none" fill="none"></path><g id="SvgjsG1940"><text id="SvgjsText1941" font-family="微软雅黑" text-anchor="middle" font-size="12px" width="98" fill="#323232" font-weight="400" align="middle" anchor="middle" family="微软雅黑" size="12px" weight="400" font-style="" opacity="1" y="2.370530275704053" transform="rotate(0)"><tspan id="SvgjsTspan1942" dy="15" x="55"><tspan id="SvgjsTspan1943" style="text-decoration:;">doDispatch(msg)</tspan></tspan></text></g></g><g id="SvgjsG1944" transform="translate(1269.5638221016957,27.28189856994095)"><path id="SvgjsPath1945" d="M 66.7766623113871 30L 66.7766623113871 559.0388312369678" stroke-dasharray="3,4" stroke="rgba(50,50,50,1)" stroke-width="2" fill="none"></path><path id="SvgjsPath1946" d="M 0 0L 133.5533246227742 0L 133.5533246227742 30L 0 30Z" stroke="rgba(50,50,50,1)" stroke-width="2" fill-opacity="1" fill="#ffffff"></path><g id="SvgjsG1947"><text id="SvgjsText1948" font-family="微软雅黑" text-anchor="middle" font-size="12px" width="110" fill="#323232" font-weight="400" align="middle" anchor="middle" family="微软雅黑" size="12px" weight="400" font-style="" opacity="1" y="5.7" transform="rotate(0)"><tspan id="SvgjsTspan1949" dy="15" x="67"><tspan id="SvgjsTspan1950" style="text-decoration:;">EventHubTemplate</tspan></tspan></text></g></g><g id="SvgjsG1951" transform="translate(1321.3404844130828,232.5333529548966)"><path id="SvgjsPath1952" d="M 0 4Q 0 0 4 0L 26 0Q 30 0 30 4L 30 139.32909465234047Q 30 143.32909465234047 26 143.32909465234047L 4 143.32909465234047Q 0 143.32909465234047 0 139.32909465234047L 0 4Z" stroke="rgba(50,50,50,1)" stroke-width="2" fill-opacity="1" fill="#ffffff"></path></g><g id="SvgjsG1953" transform="translate(1171.4958302629705,205.8235307134939)"><path id="SvgjsPath1954" d="M 0 0L 141.64912494855412 0L 141.64912494855412 24.649392595173822L 0 24.649392595173822Z" stroke="none" fill="none"></path><g id="SvgjsG1955"><text id="SvgjsText1956" font-family="微软雅黑" text-anchor="middle" font-size="12px" width="123" fill="#323232" font-weight="400" align="middle" anchor="middle" family="微软雅黑" size="12px" weight="400" font-style="" opacity="1" y="-4.475303702413089" transform="rotate(0)"><tspan id="SvgjsTspan1957" dy="15" x="71"><tspan id="SvgjsTspan1958" style="text-decoration:;">handleSendResponse</tspan></tspan><tspan id="SvgjsTspan1959" dy="15" x="71"><tspan id="SvgjsTspan1960" style="text-decoration:;">Async()</tspan></tspan></text></g></g><g id="SvgjsG1961" transform="translate(1348.3404844130828,287.4771761924926)"><path id="SvgjsPath1962" d="M 0 0L 60.73764058691722 0L 60.73764058691722 20L 0 20Z" stroke="none" fill="none"></path><g id="SvgjsG1963"><text id="SvgjsText1964" font-family="微软雅黑" text-anchor="middle" font-size="12px" width="52" fill="#323232" font-weight="400" align="middle" anchor="middle" family="微软雅黑" size="12px" weight="400" font-style="" opacity="1" y="0.7000000000000002" transform="rotate(0)"><tspan id="SvgjsTspan1965" dy="15" x="30.5"><tspan id="SvgjsTspan1966" style="text-decoration:;">doSend()</tspan></tspan></text></g></g><g id="SvgjsG1967" transform="translate(1188.542598243113,314.48056409745163)"><path id="SvgjsPath1968" d="M 0 0L 152.45707009520788 0L 152.45707009520788 30.270878934797963L 0 30.270878934797963Z" stroke="none" fill="none"></path><g id="SvgjsG1969"><text id="SvgjsText1970" font-family="微软雅黑" text-anchor="middle" font-size="12px" width="108" fill="#323232" font-weight="400" align="middle" anchor="middle" family="微软雅黑" size="12px" weight="400" font-style="" opacity="1" y="-1.6645605326010182" transform="rotate(0)"><tspan id="SvgjsTspan1971" dy="15" x="76.5"><tspan id="SvgjsTspan1972" style="text-decoration:;">EventHubProducer</tspan></tspan><tspan id="SvgjsTspan1973" dy="15" x="76.5"><tspan id="SvgjsTspan1974" style="text-decoration:;">AsyncClient.send()</tspan></tspan></text></g></g><g id="SvgjsG1975" transform="translate(330.9204840012262,232.5333529548966)"><path id="SvgjsPath1976" d="M 0 0L 75.13381694278422 0L 75.13381694278422 25.954289856590037L 0 25.954289856590037Z" stroke="none" fill="none"></path><g id="SvgjsG1977"><text id="SvgjsText1978" font-family="微软雅黑" text-anchor="middle" font-size="12px" width="60" fill="#323232" font-weight="400" align="middle" anchor="middle" family="微软雅黑" size="12px" weight="400" font-style="" opacity="1" y="3.677144928295019" transform="rotate(0)"><tspan id="SvgjsTspan1979" dy="15" x="38"><tspan id="SvgjsTspan1980" style="text-decoration:;">send(msg)</tspan></tspan></text></g></g><g id="SvgjsG1981" transform="translate(255.42535291552713,25.343334036049328)"><path id="SvgjsPath1982" d="M 54.032107687404036 30L 54.032107687404036 562.7333118633264" stroke-dasharray="3,4" stroke="rgba(50,50,50,1)" stroke-width="2" fill="none"></path><path id="SvgjsPath1983" d="M 0 0L 108.06421537480807 0L 108.06421537480807 30L 0 30Z" stroke="rgba(50,50,50,1)" stroke-width="2" fill-opacity="1" fill="#ffffff"></path><g id="SvgjsG1984"><text id="SvgjsText1985" font-family="微软雅黑" text-anchor="middle" font-size="12px" width="81" fill="#323232" font-weight="400" align="middle" anchor="middle" family="微软雅黑" size="12px" weight="400" font-style="" opacity="1" y="-1.7999999999999998" transform="rotate(0)"><tspan id="SvgjsTspan1986" dy="15" x="54.5"><tspan id="SvgjsTspan1987" style="text-decoration:;">DirectChannel</tspan></tspan><tspan id="SvgjsTspan1988" dy="15" x="54.5"><tspan id="SvgjsTspan1989" style="text-decoration:;">Input</tspan></tspan></text></g></g><g id="SvgjsG1990" transform="translate(294.4574606029312,198.17484876844617)"><path id="SvgjsPath1991" d="M 0 4Q 0 0 4 0L 26 0Q 30 0 30 4L 30 75.85788297960204Q 30 79.85788297960204 26 79.85788297960204L 4 79.85788297960204Q 0 79.85788297960204 0 75.85788297960204L 0 4Z" stroke="rgba(50,50,50,1)" stroke-width="2" fill-opacity="1" fill="#ffffff"></path></g><g id="SvgjsG1992" transform="translate(372.5066833496094,25.525982477473917)"><path id="SvgjsPath1993" d="M 86.59524281819654 30L 86.59524281819654 557.3438356071858" stroke-dasharray="3,4" stroke="rgba(50,50,50,1)" stroke-width="2" fill="none"></path><path id="SvgjsPath1994" d="M 0 0L 173.19048563639308 0L 173.19048563639308 30L 0 30Z" stroke="rgba(50,50,50,1)" stroke-width="2" fill-opacity="1" fill="#ffffff"></path><g id="SvgjsG1995"><text id="SvgjsText1996" font-family="微软雅黑" text-anchor="middle" font-size="12px" width="152" fill="#323232" font-weight="400" align="middle" anchor="middle" family="微软雅黑" size="12px" weight="400" font-style="" opacity="1" y="5.7" transform="rotate(0)"><tspan id="SvgjsTspan1997" dy="15" x="87"><tspan id="SvgjsTspan1998" style="text-decoration:;">GatewayProxyFactoryBean</tspan></tspan></text></g></g><g id="SvgjsG1999" transform="translate(139.17379320270655,25.525982477473917)"><path id="SvgjsPath2000" d="M 54.0336674002246 30L 54.0336674002246 562.5506634219018" stroke-dasharray="3,4" stroke="rgba(50,50,50,1)" stroke-width="2" fill="none"></path><path id="SvgjsPath2001" d="M 0 0L 108.0673348004492 0L 108.0673348004492 30L 0 30Z" stroke="rgba(50,50,50,1)" stroke-width="2" fill-opacity="1" fill="#ffffff"></path><g id="SvgjsG2002"><text id="SvgjsText2003" font-family="微软雅黑" text-anchor="middle" font-size="12px" width="85" fill="#323232" font-weight="400" align="middle" anchor="middle" family="微软雅黑" size="12px" weight="400" font-style="" opacity="1" y="-1.7999999999999998" transform="rotate(0)"><tspan id="SvgjsTspan2004" dy="15" x="54.5"><tspan id="SvgjsTspan2005" style="text-decoration:;">EventHubOutb</tspan></tspan><tspan id="SvgjsTspan2006" dy="15" x="54.5"><tspan id="SvgjsTspan2007" style="text-decoration:;">oundGateway</tspan></tspan></text></g></g><g id="SvgjsG2008" transform="translate(178.20746060293115,134.1319292438647)"><path id="SvgjsPath2009" d="M 0 4Q 0 0 4 0L 26 0Q 30 0 30 4L 30 286.8524457561353Q 30 290.8524457561353 26 290.8524457561353L 4 290.8524457561353Q 0 290.8524457561353 0 286.8524457561353L 0 4Z" stroke="rgba(50,50,50,1)" stroke-width="2" fill-opacity="1" fill="#ffffff"></path></g><g id="SvgjsG2010"><path id="SvgjsPath2011" d="M208.078125 149.984375L326.578125 149.984375L326.578125 149.984375L445.078125 149.984375" stroke="#323232" stroke-width="2" fill="none" marker-end="url(#SvgjsMarker2012)"></path></g><g id="SvgjsG2014" transform="translate(444.1019261678059,132.28693630251743)"><path id="SvgjsPath2015" d="M 0 4Q 0 0 4 0L 26 0Q 30 0 30 4L 30 282.77944941747165Q 30 286.77944941747165 26 286.77944941747165L 4 286.77944941747165Q 0 286.77944941747165 0 282.77944941747165L 0 4Z" stroke="rgba(50,50,50,1)" stroke-width="2" fill-opacity="1" fill="#ffffff"></path></g><g id="SvgjsG2016" transform="translate(474.1019261678059,118.93172041982615)"><path id="SvgjsPath2017" d="M 0 0L 153.81745026603687 0L 153.81745026603687 23.99529853933842L 0 23.99529853933842Z" stroke="none" fill="none"></path><g id="SvgjsG2018"><text id="SvgjsText2019" font-family="微软雅黑" text-anchor="middle" font-size="12px" width="141" fill="#323232" font-weight="400" align="middle" anchor="middle" family="微软雅黑" size="12px" weight="400" font-style="" opacity="1" y="2.6976492696692107" transform="rotate(0)"><tspan id="SvgjsTspan2020" dy="15" x="77"><tspan id="SvgjsTspan2021" style="text-decoration:;">invokeGatewayMethod()</tspan></tspan></text></g></g><g id="SvgjsG2022" transform="translate(519.5978192596283,162.52668569564392)"><path id="SvgjsPath2023" d="M 0 0L 283.8365695676372 0L 283.8365695676372 43.21020377272015L 0 43.21020377272015Z" stroke="none" fill="none"></path><g id="SvgjsG2024"><text id="SvgjsText2025" font-family="微软雅黑" text-anchor="middle" font-size="12px" width="241" fill="#323232" font-weight="400" align="middle" anchor="middle" family="微软雅黑" size="12px" weight="400" font-style="" opacity="1" y="4.805101886360075" transform="rotate(0)"><tspan id="SvgjsTspan2026" dy="15" x="142"><tspan id="SvgjsTspan2027" style="text-decoration:;">-&gt; messagingTemplate</tspan></tspan><tspan id="SvgjsTspan2028" dy="15" x="142"><tspan id="SvgjsTspan2029" style="text-decoration:;">.convertAndSend(InputChannel, Message)</tspan></tspan></text></g></g><g id="SvgjsG2030"><path id="SvgjsPath2031" d="M474.078125 148.984375L552.7844741874271 148.984375L552.7844741874271 149.12722778320312L631.4908233748541 149.12722778320312" stroke="#323232" stroke-width="2" fill="none" marker-end="url(#SvgjsMarker2032)"></path></g><g id="SvgjsG2034" transform="translate(648.2348037407409,119.20112185955736)"><path id="SvgjsPath2035" d="M 0 0L 83.53379563321255 0L 83.53379563321255 23.45649565987597L 0 23.45649565987597Z" stroke="none" fill="none"></path><g id="SvgjsG2036"><text id="SvgjsText2037" font-family="微软雅黑" text-anchor="middle" font-size="12px" width="35" fill="#323232" font-weight="400" align="middle" anchor="middle" family="微软雅黑" size="12px" weight="400" font-style="" opacity="1" y="2.428247829937985" transform="rotate(0)"><tspan id="SvgjsTspan2038" dy="15" x="42"><tspan id="SvgjsTspan2039" style="text-decoration:;">send()</tspan></tspan></text></g></g><g id="SvgjsG2040" transform="translate(839.9014666398054,168.9460671969575)"><path id="SvgjsPath2041" d="M 0 0L 83.53379563321255 0L 83.53379563321255 23.45649565987597L 0 23.45649565987597Z" stroke="none" fill="none"></path><g id="SvgjsG2042"><text id="SvgjsText2043" font-family="微软雅黑" text-anchor="middle" font-size="12px" width="52" fill="#323232" font-weight="400" align="middle" anchor="middle" family="微软雅黑" size="12px" weight="400" font-style="" opacity="1" y="2.428247829937985" transform="rotate(0)"><tspan id="SvgjsTspan2044" dy="15" x="42"><tspan id="SvgjsTspan2045" style="text-decoration:;">doSend()</tspan></tspan></text></g></g><g id="SvgjsG2046"><path id="SvgjsPath2047" d="M819.561964611328 214.84151543511285L570.7446443472222 214.84151543511285L570.7446443472222 214.84151543511285L321.92732408311633 214.84151543511285" stroke-dasharray="3,3" stroke="#323232" stroke-width="2" fill="none" marker-end="url(#SvgjsMarker2048)"></path></g><g id="SvgjsG2050"><path id="SvgjsPath2051" d="M323.0384351942274 256.1113518608941L657.343990749783 256.1113518608941L657.343990749783 256.1113518608941L991.6495463053385 256.1113518608941" stroke="#323232" stroke-width="2" fill="none" marker-end="url(#SvgjsMarker2052)"></path></g><g id="SvgjsG2054"><path id="SvgjsPath2055" d="M660.078125 147.984375L739.1839440966407 147.984375L739.1839440966407 148.33357832166882L818.2897631932815 148.33357832166882" stroke="#323232" stroke-width="2" fill="none" marker-end="url(#SvgjsMarker2056)"></path></g><g id="SvgjsG2058"><path id="SvgjsPath2059" d="M1019.9035508897568 252.77802276611328L1088.2368842230903 252.77802276611328L1088.2368842230903 252.77802276611328L1156.5702175564236 252.77802276611328" stroke="#323232" stroke-width="2" fill="none" marker-end="url(#SvgjsMarker2060)"></path></g><g id="SvgjsG2062" transform="translate(1105.677835019661,278.0327317480482)"><path id="SvgjsPath2063" d="M 0 0L 111.78350235843277 0L 111.78350235843277 38.88888888888886L 0 38.88888888888886Z" stroke="none" fill="none"></path><g id="SvgjsG2064"><text id="SvgjsText2065" font-family="微软雅黑" text-anchor="middle" font-size="12px" width="110" fill="#323232" font-weight="400" align="middle" anchor="middle" family="微软雅黑" size="12px" weight="400" font-style="" opacity="1" y="2.644444444444429" transform="rotate(0)"><tspan id="SvgjsTspan2066" dy="15" x="56"><tspan id="SvgjsTspan2067" style="text-decoration:;">EventHubTemplate</tspan></tspan><tspan id="SvgjsTspan2068" dy="15" x="56"><tspan id="SvgjsTspan2069" style="text-decoration:;">.sendAsync()</tspan></tspan></text></g></g><g id="SvgjsG2070"><path id="SvgjsPath2071" d="M1182.9193912082249 250.23834143744574L1251.252724541558 250.23834143744574L1251.252724541558 250.23834143744574L1319.5860578748914 250.23834143744574" stroke="#323232" stroke-width="2" fill="none" marker-end="url(#SvgjsMarker2072)"></path></g><g id="SvgjsG2074"><path id="SvgjsPath2075" d="M1321.3404844130828 350.984375L1085.2093047065414 350.984375L1085.2093047065414 350.984375L849.078125 350.984375" stroke-dasharray="3,3" stroke="#323232" stroke-width="2" fill="none" marker-end="url(#SvgjsMarker2076)"></path></g><g id="SvgjsG2078" transform="translate(1158.542598243113,442.5947364946956)"><path id="SvgjsPath2079" d="M 0 4Q 0 0 4 0L 26 0Q 30 0 30 4L 30 76.10392530950361Q 30 80.10392530950361 26 80.10392530950361L 4 80.10392530950361Q 0 80.10392530950361 0 76.10392530950361L 0 4Z" stroke="rgba(50,50,50,1)" stroke-width="2" fill-opacity="1" fill="#ffffff"></path></g><g id="SvgjsG2080" transform="translate(1188.542598243113,480.6986618041992)"><path id="SvgjsPath2081" d="M 0 0L 127.53552675688707 0L 127.53552675688707 20L 0 20Z" stroke="none" fill="none"></path><g id="SvgjsG2082"><text id="SvgjsText2083" font-family="微软雅黑" text-anchor="middle" font-size="12px" width="113" fill="#323232" font-weight="400" align="middle" anchor="middle" family="微软雅黑" size="12px" weight="400" font-style="" opacity="1" y="0.7000000000000002" transform="rotate(0)"><tspan id="SvgjsTspan2084" dy="15" x="64"><tspan id="SvgjsTspan2085" style="text-decoration:;">calback.onSuccess()</tspan></tspan></text></g></g><g id="SvgjsG2086"><path id="SvgjsPath2087" d="M1188.2209815979004 450.6986618041992L1218.2209815979004 450.6986618041992L1218.2209815979004 476.6986618041992L1188.2209815979004 476.6986618041992" stroke="#323232" stroke-width="2" fill="none" marker-end="url(#SvgjsMarker2088)"></path></g><g id="SvgjsG2090"><path id="SvgjsPath2091" d="M1159.2209815979004 490.6986618041992L624.1495532989502 490.6986618041992L624.1495532989502 490.984375L89.078125 490.984375" stroke-dasharray="3,3" stroke="#323232" stroke-width="2" fill="none" marker-end="url(#SvgjsMarker2092)"></path></g><g id="SvgjsG2094"><path id="SvgjsPath2095" d="M633.078125 397.984375L552.578125 397.984375L552.578125 397.984375L472.078125 397.984375" stroke-dasharray="3,3" stroke="#323232" stroke-width="2" fill="none" marker-end="url(#SvgjsMarker2096)"></path></g><g id="SvgjsG2098" transform="translate(25.006683349609375,25.525982477473917)"><path id="SvgjsPath2099" d="M 51.61722232677319 30L 51.61722232677319 562.5506634219018" stroke-dasharray="3,4" stroke="rgba(50,50,50,1)" stroke-width="2" fill="none"></path><path id="SvgjsPath2100" d="M 0 0L 103.23444465354638 0L 103.23444465354638 30L 0 30Z" stroke="rgba(50,50,50,1)" stroke-width="2" fill-opacity="1" fill="#ffffff"></path><g id="SvgjsG2101"><text id="SvgjsText2102" font-family="微软雅黑" text-anchor="middle" font-size="12px" width="84" fill="#323232" font-weight="400" align="middle" anchor="middle" family="微软雅黑" size="12px" weight="400" font-style="" opacity="1" y="-1.7999999999999998" transform="rotate(0)"><tspan id="SvgjsTspan2103" dy="15" x="52"><tspan id="SvgjsTspan2104" style="text-decoration:;">ListenableFutu</tspan></tspan><tspan id="SvgjsTspan2105" dy="15" x="52"><tspan id="SvgjsTspan2106" style="text-decoration:;">reCallback</tspan></tspan></text></g></g><g id="SvgjsG2107" transform="translate(61.62390567638256,461.2601618385998)"><path id="SvgjsPath2108" d="M 0 4Q 0 0 4 0L 26 0Q 30 0 30 4L 30 76.7242131614002Q 30 80.7242131614002 26 80.7242131614002L 4 80.7242131614002Q 0 80.7242131614002 0 76.7242131614002L 0 4Z" stroke="rgba(50,50,50,1)" stroke-width="2" fill-opacity="1" fill="#ffffff"></path></g><g id="SvgjsG2109"><path id="SvgjsPath2110" d="M91.078125 502.984375L121.078125 502.984375L121.078125 525.984375L91.078125 525.984375" stroke="#323232" stroke-width="2" fill="none" marker-end="url(#SvgjsMarker2111)"></path></g><g id="SvgjsG2113" transform="translate(83.12694575819374,527.984375)"><path id="SvgjsPath2114" d="M 0 0L 95.08051484473741 0L 95.08051484473741 28L 0 28Z" stroke="none" fill="none"></path><g id="SvgjsG2115"><text id="SvgjsText2116" font-family="微软雅黑" text-anchor="middle" font-size="12px" width="67" fill="#323232" font-weight="400" align="middle" anchor="middle" family="微软雅黑" size="12px" weight="400" font-style="" opacity="1" y="-2.8" transform="rotate(0)"><tspan id="SvgjsTspan2117" dy="15" x="48"><tspan id="SvgjsTspan2118" style="text-decoration:;">onSuccess()</tspan></tspan><tspan id="SvgjsTspan2119" dy="15" x="48"><tspan id="SvgjsTspan2120" style="text-decoration:;">onFailure()</tspan></tspan></text></g></g><g id="SvgjsG2121"><path id="SvgjsPath2122" d="M1350.078125 255.984375L1380.078125 255.984375L1381.078125 279.984375L1351.078125 279.984375" stroke="#323232" stroke-width="2" fill="none" marker-end="url(#SvgjsMarker2123)"></path></g><g id="SvgjsG2125"><path id="SvgjsPath2126" d="M820.078125 367.984375L740.078125 367.984375L740.078125 367.984375L660.078125 367.984375" stroke-dasharray="3,3" stroke="#323232" stroke-width="2" fill="none" marker-end="url(#SvgjsMarker2127)"></path></g><g id="SvgjsG2129"><path id="SvgjsPath2130" d="M445.06290379236697 406.6357520290094L325.5705143961835 406.6357520290094L325.5705143961835 406.984375L206.078125 406.984375" stroke-dasharray="3,3" stroke="#323232" stroke-width="2" fill="none" marker-end="url(#SvgjsMarker2131)"></path></g></svg>