<svg id="SvgjsSvg1006" width="1344.857177734375" height="613.2946472167969" xmlns="http://www.w3.org/2000/svg" version="1.1" xmlns:xlink="http://www.w3.org/1999/xlink" xmlns:svgjs="http://svgjs.com/svgjs"><defs id="SvgjsDefs1007"><marker id="SvgjsMarker1149" markerWidth="16" markerHeight="12" refX="16" refY="6" viewBox="0 0 16 12" orient="auto" markerUnits="userSpaceOnUse"><path id="SvgjsPath1150" d="M0,2 L14,6 L0,11 L0,2" fill="#323232" stroke="#323232" stroke-width="2"></path></marker><marker id="SvgjsMarker1167" markerWidth="16" markerHeight="12" refX="16" refY="6" viewBox="0 0 16 12" orient="auto" markerUnits="userSpaceOnUse"><path id="SvgjsPath1168" d="M0,2 L14,6 L0,11 L0,2" fill="#323232" stroke="#323232" stroke-width="2"></path></marker><marker id="SvgjsMarker1171" markerWidth="16" markerHeight="12" refX="16" refY="6" viewBox="0 0 16 12" orient="auto" markerUnits="userSpaceOnUse"><path id="SvgjsPath1172" d="M0,2 L14,6 L0,11 L0,2" fill="#323232" stroke="#323232" stroke-width="2"></path></marker><marker id="SvgjsMarker1175" markerWidth="16" markerHeight="12" refX="16" refY="6" viewBox="0 0 16 12" orient="auto" markerUnits="userSpaceOnUse"><path id="SvgjsPath1176" d="M0,2 L14,6 L0,11 L0,2" fill="#323232" stroke="#323232" stroke-width="2"></path></marker><marker id="SvgjsMarker1186" markerWidth="16" markerHeight="12" refX="16" refY="6" viewBox="0 0 16 12" orient="auto" markerUnits="userSpaceOnUse"><path id="SvgjsPath1187" d="M0,2 L14,6 L0,11 L0,2" fill="#323232" stroke="#323232" stroke-width="2"></path></marker><marker id="SvgjsMarker1190" markerWidth="16" markerHeight="12" refX="16" refY="6" viewBox="0 0 16 12" orient="auto" markerUnits="userSpaceOnUse"><path id="SvgjsPath1191" d="M0,2 L14,6 L0,11 L0,2" fill="#323232" stroke="#323232" stroke-width="2"></path></marker><marker id="SvgjsMarker1200" markerWidth="16" markerHeight="12" refX="16" refY="6" viewBox="0 0 16 12" orient="auto" markerUnits="userSpaceOnUse"><path id="SvgjsPath1201" d="M0,2 L14,6 L0,11 L0,2" fill="#323232" stroke="#323232" stroke-width="2"></path></marker><marker id="SvgjsMarker1214" markerWidth="16" markerHeight="12" refX="16" refY="6" viewBox="0 0 16 12" orient="auto" markerUnits="userSpaceOnUse"><path id="SvgjsPath1215" d="M0,2 L14,6 L0,11 L0,2" fill="#323232" stroke="#323232" stroke-width="2"></path></marker><marker id="SvgjsMarker1247" markerWidth="16" markerHeight="12" refX="16" refY="6" viewBox="0 0 16 12" orient="auto" markerUnits="userSpaceOnUse"><path id="SvgjsPath1248" d="M0,2 L14,6 L0,11 L0,2" fill="#323232" stroke="#323232" stroke-width="2"></path></marker><marker id="SvgjsMarker1259" markerWidth="16" markerHeight="12" refX="16" refY="6" viewBox="0 0 16 12" orient="auto" markerUnits="userSpaceOnUse"><path id="SvgjsPath1260" d="M0,2 L14,6 L0,11 L0,2" fill="#323232" stroke="#323232" stroke-width="2"></path></marker><marker id="SvgjsMarker1263" markerWidth="16" markerHeight="12" refX="16" refY="6" viewBox="0 0 16 12" orient="auto" markerUnits="userSpaceOnUse"><path id="SvgjsPath1264" d="M0,2 L14,6 L0,11 L0,2" fill="#323232" stroke="#323232" stroke-width="2"></path></marker><marker id="SvgjsMarker1267" markerWidth="16" markerHeight="12" refX="16" refY="6" viewBox="0 0 16 12" orient="auto" markerUnits="userSpaceOnUse"><path id="SvgjsPath1268" d="M0,2 L14,6 L0,11 L0,2" fill="#323232" stroke="#323232" stroke-width="2"></path></marker><marker id="SvgjsMarker1271" markerWidth="16" markerHeight="12" refX="16" refY="6" viewBox="0 0 16 12" orient="auto" markerUnits="userSpaceOnUse"><path id="SvgjsPath1272" d="M0,2 L14,6 L0,11 L0,2" fill="#323232" stroke="#323232" stroke-width="2"></path></marker><marker id="SvgjsMarker1293" markerWidth="16" markerHeight="12" refX="16" refY="6" viewBox="0 0 16 12" orient="auto" markerUnits="userSpaceOnUse"><path id="SvgjsPath1294" d="M0,2 L14,6 L0,11 L0,2" fill="#323232" stroke="#323232" stroke-width="2"></path></marker></defs><g id="SvgjsG1008" transform="translate(365.04163613782293,25.117885427650904)"><path id="SvgjsPath1009" d="M 53.480892409626264 30L 53.480892409626264 555.4909189508337" stroke-dasharray="3,4" stroke="rgba(50,50,50,1)" stroke-width="2" fill="none"></path><path id="SvgjsPath1010" d="M 0 0L 106.96178481925253 0L 106.96178481925253 30L 0 30Z" stroke="rgba(50,50,50,1)" stroke-width="2" fill-opacity="1" fill="#ffffff"></path><g id="SvgjsG1011"><text id="SvgjsText1012" font-family="微软雅黑" text-anchor="middle" font-size="12px" width="85" fill="#323232" font-weight="400" align="middle" anchor="middle" family="微软雅黑" size="12px" weight="400" font-style="" opacity="1" y="-1.7999999999999998" transform="rotate(0)"><tspan id="SvgjsTspan1013" dy="15" x="53.5"><tspan id="SvgjsTspan1014" style="text-decoration:;">QueueChannel</tspan></tspan><tspan id="SvgjsTspan1015" dy="15" x="53.5"><tspan id="SvgjsTspan1016" style="text-decoration:;">Ooutput</tspan></tspan></text></g></g><g id="SvgjsG1017" transform="translate(611.0049472384982,25.00739172842907)"><path id="SvgjsPath1018" d="M 63.97619459364154 30L 63.97619459364154 563.6307748636885" stroke-dasharray="3,4" stroke="rgba(50,50,50,1)" stroke-width="2" fill="none"></path><path id="SvgjsPath1019" d="M 0 0L 127.95238918728307 0L 127.95238918728307 30L 0 30Z" stroke="rgba(50,50,50,1)" stroke-width="2" fill-opacity="1" fill="#ffffff"></path><g id="SvgjsG1020"><text id="SvgjsText1021" font-family="微软雅黑" text-anchor="middle" font-size="12px" width="103" fill="#323232" font-weight="400" align="middle" anchor="middle" family="微软雅黑" size="12px" weight="400" font-style="" opacity="1" y="-1.7999999999999998" transform="rotate(0)"><tspan id="SvgjsTspan1022" dy="15" x="64"><tspan id="SvgjsTspan1023" style="text-decoration:;">MessageProducer</tspan></tspan><tspan id="SvgjsTspan1024" dy="15" x="64"><tspan id="SvgjsTspan1025" style="text-decoration:;">Support</tspan></tspan></text></g></g><g id="SvgjsG1026" transform="translate(746.9315137106278,25.634331860641225)"><path id="SvgjsPath1027" d="M 66.01291135757714 30L 66.01291135757714 558.6608414306778" stroke-dasharray="3,4" stroke="rgba(50,50,50,1)" stroke-width="2" fill="none"></path><path id="SvgjsPath1028" d="M 0 0L 132.02582271515428 0L 132.02582271515428 30L 0 30Z" stroke="rgba(50,50,50,1)" stroke-width="2" fill-opacity="1" fill="#ffffff"></path><g id="SvgjsG1029"><text id="SvgjsText1030" font-family="微软雅黑" text-anchor="middle" font-size="12px" width="106" fill="#323232" font-weight="400" align="middle" anchor="middle" family="微软雅黑" size="12px" weight="400" font-style="" opacity="1" y="-1.7999999999999998" transform="rotate(0)"><tspan id="SvgjsTspan1031" dy="15" x="66.5"><tspan id="SvgjsTspan1032" style="text-decoration:;">GenericMessaging</tspan></tspan><tspan id="SvgjsTspan1033" dy="15" x="66.5"><tspan id="SvgjsTspan1034" style="text-decoration:;">Template</tspan></tspan></text></g></g><g id="SvgjsG1035" transform="translate(885.2049537673081,25.64867387943275)"><path id="SvgjsPath1036" d="M 72.01388888888903 30L 72.01388888888903 559.3114176583709" stroke-dasharray="3,4" stroke="rgba(50,50,50,1)" stroke-width="2" fill="none"></path><path id="SvgjsPath1037" d="M 0 0L 144.02777777777806 0L 144.02777777777806 30L 0 30Z" stroke="rgba(50,50,50,1)" stroke-width="2" fill-opacity="1" fill="#ffffff"></path><g id="SvgjsG1038"><text id="SvgjsText1039" font-family="微软雅黑" text-anchor="middle" font-size="12px" width="122" fill="#323232" font-weight="400" align="middle" anchor="middle" family="微软雅黑" size="12px" weight="400" font-style="" opacity="1" y="5.7" transform="rotate(0)"><tspan id="SvgjsTspan1040" dy="15" x="72.5"><tspan id="SvgjsTspan1041" style="text-decoration:;">UnicastingDispatcher</tspan></tspan></text></g></g><g id="SvgjsG1042" transform="translate(660.0803496951146,192.061487694119)"><path id="SvgjsPath1043" d="M 0 4Q 0 0 4 0L 26 0Q 30 0 30 4L 30 38.77307462169517Q 30 42.77307462169517 26 42.77307462169517L 4 42.77307462169517Q 0 42.77307462169517 0 38.77307462169517L 0 4Z" stroke="rgba(50,50,50,1)" stroke-width="2" fill-opacity="1" fill="#ffffff"></path></g><g id="SvgjsG1044" transform="translate(791.9491173891058,195.14349841410805)"><path id="SvgjsPath1045" d="M 0 4Q 0 0 4 0L 26 0Q 30 0 30 4L 30 83.39723977960026Q 30 87.39723977960026 26 87.39723977960026L 4 87.39723977960026Q 0 87.39723977960026 0 83.39723977960026L 0 4Z" stroke="rgba(50,50,50,1)" stroke-width="2" fill-opacity="1" fill="#ffffff"></path></g><g id="SvgjsG1046" transform="translate(1036.7513678780304,25.30053386907548)"><path id="SvgjsPath1047" d="M 65.46806606098482 30L 65.46806606098482 556.1169726638304" stroke-dasharray="3,4" stroke="rgba(50,50,50,1)" stroke-width="2" fill="none"></path><path id="SvgjsPath1048" d="M 0 0L 130.93613212196965 0L 130.93613212196965 30L 0 30Z" stroke="rgba(50,50,50,1)" stroke-width="2" fill-opacity="1" fill="#ffffff"></path><g id="SvgjsG1049"><text id="SvgjsText1050" font-family="微软雅黑" text-anchor="middle" font-size="12px" width="99" fill="#323232" font-weight="400" align="middle" anchor="middle" family="微软雅黑" size="12px" weight="400" font-style="" opacity="1" y="-1.7999999999999998" transform="rotate(0)"><tspan id="SvgjsTspan1051" dy="15" x="65.5"><tspan id="SvgjsTspan1052" style="text-decoration:;">ServiceActivating</tspan></tspan><tspan id="SvgjsTspan1053" dy="15" x="65.5"><tspan id="SvgjsTspan1054" style="text-decoration:;">Handler</tspan></tspan></text></g></g><g id="SvgjsG1055" transform="translate(942.1757916878507,270.478937142885)"><path id="SvgjsPath1056" d="M 0 4Q 0 0 4 0L 26 0Q 30 0 30 4L 30 44.15351785358064Q 30 48.15351785358064 26 48.15351785358064L 4 48.15351785358064Q 0 48.15351785358064 0 44.15351785358064L 0 4Z" stroke="rgba(50,50,50,1)" stroke-width="2" fill-opacity="1" fill="#ffffff"></path></g><g id="SvgjsG1057" transform="translate(1087.9598349641788,270.4674642590094)"><path id="SvgjsPath1058" d="M 0 4Q 0 0 4 0L 26 0Q 30 0 30 4L 30 43.4379952533526Q 30 47.4379952533526 26 47.4379952533526L 4 47.4379952533526Q 0 47.4379952533526 0 43.4379952533526L 0 4Z" stroke="rgba(50,50,50,1)" stroke-width="2" fill-opacity="1" fill="#ffffff"></path></g><g id="SvgjsG1059" transform="translate(965.2746210373919,248.43352762245217)"><path id="SvgjsPath1060" d="M 0 0L 109.45022635989767 0L 109.45022635989767 23.341060551408106L 0 23.341060551408106Z" stroke="none" fill="none"></path><g id="SvgjsG1061"><text id="SvgjsText1062" font-family="微软雅黑" text-anchor="middle" font-size="12px" width="98" fill="#323232" font-weight="400" align="middle" anchor="middle" family="微软雅黑" size="12px" weight="400" font-style="" opacity="1" y="2.370530275704053" transform="rotate(0)"><tspan id="SvgjsTspan1063" dy="15" x="55"><tspan id="SvgjsTspan1064" style="text-decoration:;">doDispatch(msg)</tspan></tspan></text></g></g><g id="SvgjsG1065" transform="translate(1175.4040457114272,25.462859345360883)"><path id="SvgjsPath1066" d="M 66.7766623113871 30L 66.7766623113871 559.0388312369678" stroke-dasharray="3,4" stroke="rgba(50,50,50,1)" stroke-width="2" fill="none"></path><path id="SvgjsPath1067" d="M 0 0L 133.5533246227742 0L 133.5533246227742 30L 0 30Z" stroke="rgba(50,50,50,1)" stroke-width="2" fill-opacity="1" fill="#ffffff"></path><g id="SvgjsG1068"><text id="SvgjsText1069" font-family="微软雅黑" text-anchor="middle" font-size="12px" width="111" fill="#323232" font-weight="400" align="middle" anchor="middle" family="微软雅黑" size="12px" weight="400" font-style="" opacity="1" y="-1.7999999999999998" transform="rotate(0)"><tspan id="SvgjsTspan1070" dy="15" x="67"><tspan id="SvgjsTspan1071" style="text-decoration:;">MessagingMethodI</tspan></tspan><tspan id="SvgjsTspan1072" dy="15" x="67"><tspan id="SvgjsTspan1073" style="text-decoration:;">nvokerHelper</tspan></tspan></text></g></g><g id="SvgjsG1074" transform="translate(1227.1819174924974,259.5056843920528)"><path id="SvgjsPath1075" d="M 0 4Q 0 0 4 0L 26 0Q 30 0 30 4L 30 210.6341895364411Q 30 214.6341895364411 26 214.6341895364411L 4 214.6341895364411Q 0 214.6341895364411 0 210.6341895364411L 0 4Z" stroke-dasharray="3,4" stroke="rgba(50,50,50,1)" stroke-width="2" fill-opacity="1" fill="#ffffff"></path></g><g id="SvgjsG1076" transform="translate(1082.028331309088,233.75669357680022)"><path id="SvgjsPath1077" d="M 0 0L 153.01087343169092 0L 153.01087343169092 29.387867377939017L 0 29.387867377939017Z" stroke="none" fill="none"></path><g id="SvgjsG1078"><text id="SvgjsText1079" font-family="微软雅黑" text-anchor="middle" font-size="12px" width="109" fill="#323232" font-weight="400" align="middle" anchor="middle" family="微软雅黑" size="12px" weight="400" font-style="" opacity="1" y="-2.1060663110304914" transform="rotate(0)"><tspan id="SvgjsTspan1080" dy="15" x="77"><tspan id="SvgjsTspan1081" style="text-decoration:;">handleRequest</tspan></tspan><tspan id="SvgjsTspan1082" dy="15" x="77"><tspan id="SvgjsTspan1083" style="text-decoration:;">Message(message)</tspan></tspan></text></g></g><g id="SvgjsG1084" transform="translate(1119.9335936477971,324.5745032589832)"><path id="SvgjsPath1085" d="M 0 0L 103.4047072690862 0L 103.4047072690862 30.65346908298119L 0 30.65346908298119Z" stroke="none" fill="none"></path><g id="SvgjsG1086"><text id="SvgjsText1087" font-family="微软雅黑" text-anchor="middle" font-size="12px" width="102" fill="#323232" font-weight="400" align="middle" anchor="middle" family="微软雅黑" size="12px" weight="400" font-style="" opacity="1" y="6.026734541490595" transform="rotate(0)"><tspan id="SvgjsTspan1088" dy="15" x="52"><tspan id="SvgjsTspan1089" style="text-decoration:;">process(message)</tspan></tspan></text></g></g><g id="SvgjsG1090" transform="translate(1074.7248473972895,359.88251528091496)"><path id="SvgjsPath1091" d="M 0 0L 152.45707009520788 0L 152.45707009520788 30.270878934797963L 0 30.270878934797963Z" stroke="none" fill="none"></path><g id="SvgjsG1092"><text id="SvgjsText1093" font-family="微软雅黑" text-anchor="middle" font-size="12px" width="146" fill="#323232" font-weight="400" align="middle" anchor="middle" family="微软雅黑" size="12px" weight="400" font-style="" opacity="1" y="-1.6645605326010182" transform="rotate(0)"><tspan id="SvgjsTspan1094" dy="15" x="76.5"><tspan id="SvgjsTspan1095" style="text-decoration:;">invocableHandlerMethod</tspan></tspan><tspan id="SvgjsTspan1096" dy="15" x="76.5"><tspan id="SvgjsTspan1097" style="text-decoration:;">.invoke(message)</tspan></tspan></text></g></g><g id="SvgjsG1098" transform="translate(248.64583902663827,25.11788542765089)"><path id="SvgjsPath1099" d="M 54.032107687404036 30L 54.032107687404036 562.7333118633264" stroke-dasharray="3,4" stroke="rgba(50,50,50,1)" stroke-width="2" fill="none"></path><path id="SvgjsPath1100" d="M 0 0L 108.06421537480807 0L 108.06421537480807 30L 0 30Z" stroke="rgba(50,50,50,1)" stroke-width="2" fill-opacity="1" fill="#ffffff"></path><g id="SvgjsG1101"><text id="SvgjsText1102" font-family="微软雅黑" text-anchor="middle" font-size="12px" width="88" fill="#323232" font-weight="400" align="middle" anchor="middle" family="微软雅黑" size="12px" weight="400" font-style="" opacity="1" y="-1.7999999999999998" transform="rotate(0)"><tspan id="SvgjsTspan1103" dy="15" x="54.5"><tspan id="SvgjsTspan1104" style="text-decoration:;">EventHubProce</tspan></tspan><tspan id="SvgjsTspan1105" dy="15" x="54.5"><tspan id="SvgjsTspan1106" style="text-decoration:;">ssor</tspan></tspan></text></g></g><g id="SvgjsG1107" transform="translate(287.6779467140422,192.061487694119)"><path id="SvgjsPath1108" d="M 0 4Q 0 0 4 0L 26 0Q 30 0 30 4L 30 326.84029148068566Q 30 330.84029148068566 26 330.84029148068566L 4 330.84029148068566Q 0 330.84029148068566 0 326.84029148068566L 0 4Z" stroke="rgba(50,50,50,1)" stroke-width="2" fill-opacity="1" fill="#ffffff"></path></g><g id="SvgjsG1109" transform="translate(478.9017732408308,25.547447449322405)"><path id="SvgjsPath1110" d="M 63.69841681586382 30L 63.69841681586382 557.096922026939" stroke-dasharray="3,4" stroke="rgba(50,50,50,1)" stroke-width="2" fill="none"></path><path id="SvgjsPath1111" d="M 0 0L 127.39683363172765 0L 127.39683363172765 30L 0 30Z" stroke="rgba(50,50,50,1)" stroke-width="2" fill-opacity="1" fill="#ffffff"></path><g id="SvgjsG1112"><text id="SvgjsText1113" font-family="微软雅黑" text-anchor="middle" font-size="12px" width="105" fill="#323232" font-weight="400" align="middle" anchor="middle" family="微软雅黑" size="12px" weight="400" font-style="" opacity="1" y="-1.7999999999999998" transform="rotate(0)"><tspan id="SvgjsTspan1114" dy="15" x="64"><tspan id="SvgjsTspan1115" style="text-decoration:;">EventHubInbound</tspan></tspan><tspan id="SvgjsTspan1116" dy="15" x="64"><tspan id="SvgjsTspan1117" style="text-decoration:;">ChannelAdapter</tspan></tspan></text></g></g><g id="SvgjsG1118" transform="translate(137.22716946072052,25.30053386907548)"><path id="SvgjsPath1119" d="M 51.61722232677319 30L 51.61722232677319 562.5506634219018" stroke-dasharray="3,4" stroke="rgba(50,50,50,1)" stroke-width="2" fill="none"></path><path id="SvgjsPath1120" d="M 0 0L 103.23444465354638 0L 103.23444465354638 30L 0 30Z" stroke="rgba(50,50,50,1)" stroke-width="2" fill-opacity="1" fill="#ffffff"></path><g id="SvgjsG1121"><text id="SvgjsText1122" font-family="微软雅黑" text-anchor="middle" font-size="12px" width="82" fill="#323232" font-weight="400" align="middle" anchor="middle" family="微软雅黑" size="12px" weight="400" font-style="" opacity="1" y="-1.7999999999999998" transform="rotate(0)"><tspan id="SvgjsTspan1123" dy="15" x="52"><tspan id="SvgjsTspan1124" style="text-decoration:;">PartitionPump</tspan></tspan><tspan id="SvgjsTspan1125" dy="15" x="52"><tspan id="SvgjsTspan1126" style="text-decoration:;">Manager</tspan></tspan></text></g></g><g id="SvgjsG1127" transform="translate(171.4279467140423,193.90648063546627)"><path id="SvgjsPath1128" d="M 0 4Q 0 0 4 0L 26 0Q 30 0 30 4L 30 38.77307462169517Q 30 42.77307462169517 26 42.77307462169517L 4 42.77307462169517Q 0 42.77307462169517 0 38.77307462169517L 0 4Z" stroke="rgba(50,50,50,1)" stroke-width="2" fill-opacity="1" fill="#ffffff"></path></g><g id="SvgjsG1129" transform="translate(527.6001900566946,192.061487694119)"><path id="SvgjsPath1130" d="M 0 4Q 0 0 4 0L 26 0Q 30 0 30 4L 30 38.77307462169517Q 30 42.77307462169517 26 42.77307462169517L 4 42.77307462169517Q 0 42.77307462169517 0 38.77307462169517L 0 4Z" stroke="rgba(50,50,50,1)" stroke-width="2" fill-opacity="1" fill="#ffffff"></path></g><g id="SvgjsG1131" transform="translate(552.3898716881158,159.66735197754338)"><path id="SvgjsPath1132" d="M 0 0L 107.69047800699877 0L 107.69047800699877 24.534101418800844L 0 24.534101418800844Z" stroke="none" fill="none"></path><g id="SvgjsG1133"><text id="SvgjsText1134" font-family="微软雅黑" text-anchor="start" font-size="12px" width="99" fill="#323232" font-weight="400" align="middle" anchor="start" family="微软雅黑" size="12px" weight="400" font-style="" opacity="1" y="-4.532949290599578" transform="rotate(0)"><tspan id="SvgjsTspan1135" dy="15" x="0"><tspan id="SvgjsTspan1136" style="text-decoration:;">accept()</tspan></tspan><tspan id="SvgjsTspan1137" dy="15" x="0"><tspan id="SvgjsTspan1138" style="text-decoration:;">receiveMessage()</tspan></tspan></text></g></g><g id="SvgjsG1139" transform="translate(563.8656418896195,233.75669357680022)"><path id="SvgjsPath1140" d="M 0 0L 258.0834754994863 0L 258.0834754994863 28.66403729969028L 0 28.66403729969028Z" stroke="none" fill="none"></path><g id="SvgjsG1141"><text id="SvgjsText1142" font-family="微软雅黑" text-anchor="middle" font-size="12px" width="193" fill="#323232" font-weight="400" align="middle" anchor="middle" family="微软雅黑" size="12px" weight="400" font-style="" opacity="1" y="-2.4679813501548606" transform="rotate(0)"><tspan id="SvgjsTspan1143" dy="15" x="129.5"><tspan id="SvgjsTspan1144" style="text-decoration:;">-&gt; messagingTemplate</tspan></tspan><tspan id="SvgjsTspan1145" dy="15" x="129.5"><tspan id="SvgjsTspan1146" style="text-decoration:;">.send(messageChannel, message)</tspan></tspan></text></g></g><g id="SvgjsG1147"><path id="SvgjsPath1148" d="M557.0049472384981 208.9017791748047L607.9811418321397 208.9017791748047L607.9811418321397 208.9017791748047L658.9573364257812 208.9017791748047" stroke="#323232" stroke-width="2" fill="none" marker-end="url(#SvgjsMarker1149)"></path></g><g id="SvgjsG1151" transform="translate(690.0803496951146,184.20145339634422)"><path id="SvgjsPath1152" d="M 0 0L 92.55760043406383 0L 92.55760043406383 23.45649565987597L 0 23.45649565987597Z" stroke="none" fill="none"></path><g id="SvgjsG1153"><text id="SvgjsText1154" font-family="微软雅黑" text-anchor="middle" font-size="12px" width="86" fill="#323232" font-weight="400" align="middle" anchor="middle" family="微软雅黑" size="12px" weight="400" font-style="" opacity="1" y="2.428247829937985" transform="rotate(0)"><tspan id="SvgjsTspan1155" dy="15" x="46.5"><tspan id="SvgjsTspan1156" style="text-decoration:;">sendMessage()</tspan></tspan></text></g></g><g id="SvgjsG1157" transform="translate(808.790579265959,166.9999799110749)"><path id="SvgjsPath1158" d="M 0 0L 122.38897938204445 0L 122.38897938204445 24.89176587169814L 0 24.89176587169814Z" stroke="none" fill="none"></path><g id="SvgjsG1159"><text id="SvgjsText1160" font-family="微软雅黑" text-anchor="middle" font-size="12px" width="106" fill="#323232" font-weight="400" align="middle" anchor="middle" family="微软雅黑" size="12px" weight="400" font-style="" opacity="1" y="-4.3541170641509295" transform="rotate(0)"><tspan id="SvgjsTspan1161" dy="15" x="61.5"><tspan id="SvgjsTspan1162" style="text-decoration:;">doSend(channel, </tspan></tspan><tspan id="SvgjsTspan1163" dy="15" x="61.5"><tspan id="SvgjsTspan1164" style="text-decoration:;">message, timeout)</tspan></tspan></text></g></g><g id="SvgjsG1165"><path id="SvgjsPath1166" d="M689.5922546386718 210.96340909475458L740.9414621988931 210.96340909475458L740.9414621988931 210.9652743869358L792.2906697591145 210.9652743869358" stroke="#323232" stroke-width="2" fill="none" marker-end="url(#SvgjsMarker1167)"></path></g><g id="SvgjsG1169"><path id="SvgjsPath1170" d="M970.1400323415389 293.0199847144167L1029.5883872454988 293.0199847144167L1029.5883872454988 292.6507505304271L1089.0367421494589 292.6507505304271" stroke="#323232" stroke-width="2" fill="none" marker-end="url(#SvgjsMarker1171)"></path></g><g id="SvgjsG1173"><path id="SvgjsPath1174" d="M1115.3859158012601 290.1110692017595L1170.663684761524 290.1110692017595L1170.663684761524 290.1110692017595L1225.941453721788 290.1110692017595" stroke="#323232" stroke-width="2" fill="none" marker-end="url(#SvgjsMarker1175)"></path></g><g id="SvgjsG1177" transform="translate(137.22716946072052,167.20145339634422)"><path id="SvgjsPath1178" d="M 0 0L 164.15195649512805 0L 164.15195649512805 35.23071551469067L 0 35.23071551469067Z" stroke="none" fill="none"></path><g id="SvgjsG1179"><text id="SvgjsText1180" font-family="微软雅黑" text-anchor="middle" font-size="12px" width="160" fill="#323232" font-weight="400" align="middle" anchor="middle" family="微软雅黑" size="12px" weight="400" font-style="" opacity="1" y="8.315357757345335" transform="rotate(0)"><tspan id="SvgjsTspan1181" dy="15" x="82.5"><tspan id="SvgjsTspan1182" style="text-decoration:;">processEvent(EventContext</tspan><tspan id="SvgjsTspan1183" style="text-decoration:;font-size: inherit;">)</tspan></tspan></text></g></g><g id="SvgjsG1184"><path id="SvgjsPath1185" d="M199.51289028591583 214.47320556640625L243.81447431776257 214.47320556640625L243.81447431776257 214.9017791748047L288.1160583496094 214.9017791748047" stroke="#323232" stroke-width="2" fill="none" marker-end="url(#SvgjsMarker1186)"></path></g><g id="SvgjsG1188"><path id="SvgjsPath1189" d="M317.1160583496094 214.9017791748047L422.7033632066514 214.9017791748047L422.7033632066514 214.47320556640625L528.2906680636934 214.47320556640625" stroke="#323232" stroke-width="2" fill="none" marker-end="url(#SvgjsMarker1190)"></path></g><g id="SvgjsG1192" transform="translate(323.22716946072035,184.20145339634422)"><path id="SvgjsPath1193" d="M 0 0L 72.28572082519531 0L 72.28572082519531 30.27175217006203L 0 30.27175217006203Z" stroke="none" fill="none"></path><g id="SvgjsG1194"><text id="SvgjsText1195" font-family="微软雅黑" text-anchor="middle" font-size="12px" width="54" fill="#323232" font-weight="400" align="middle" anchor="middle" family="微软雅黑" size="12px" weight="400" font-style="" opacity="1" y="5.835876085031015" transform="rotate(0)"><tspan id="SvgjsTspan1196" dy="15" x="36.5"><tspan id="SvgjsTspan1197" style="text-decoration:;">onEvent()</tspan></tspan></text></g></g><g id="SvgjsG1198"><path id="SvgjsPath1199" d="M792.2779854194204 270.6747552444436L612.395437852668 270.6747552444436L612.395437852668 270.47320556640625L432.51289028591555 270.47320556640625" stroke-dasharray="3,3" stroke="#323232" stroke-width="2" fill="none" marker-end="url(#SvgjsMarker1200)"></path></g><g id="SvgjsG1202" transform="translate(403.5225285474492,248.43352762245217)"><path id="SvgjsPath1203" d="M 0 4Q 0 0 4 0L 26 0Q 30 0 30 4L 30 63.29976094122941Q 30 67.29976094122941 26 67.29976094122941L 4 67.29976094122941Q 0 67.29976094122941 0 63.29976094122941L 0 4Z" stroke="rgba(50,50,50,1)" stroke-width="2" fill-opacity="1" fill="#ffffff"></path></g><g id="SvgjsG1204" transform="translate(427.8224122789168,300.09175817038556)"><path id="SvgjsPath1205" d="M 0 0L 117.83333841959643 0L 117.83333841959643 32.01591166367632L 0 32.01591166367632Z" stroke="none" fill="none"></path><g id="SvgjsG1206"><text id="SvgjsText1207" font-family="微软雅黑" text-anchor="middle" font-size="12px" width="101" fill="#323232" font-weight="400" align="middle" anchor="middle" family="微软雅黑" size="12px" weight="400" font-style="" opacity="1" y="-0.7920441681618398" transform="rotate(0)"><tspan id="SvgjsTspan1208" dy="15" x="59"><tspan id="SvgjsTspan1209" style="text-decoration:;">doSend(message, </tspan></tspan><tspan id="SvgjsTspan1210" dy="15" x="59"><tspan id="SvgjsTspan1211" style="text-decoration:;">timeout)</tspan></tspan></text></g></g><g id="SvgjsG1212"><path id="SvgjsPath1213" d="M433.16370137532545 292.71130371093744L688.0407493894924 292.71130371093744L688.0407493894924 292.4049029273073L942.9177974036593 292.4049029273073" stroke="#323232" stroke-width="2" fill="none" marker-end="url(#SvgjsMarker1214)"></path></g><g id="SvgjsG1216" transform="translate(1157.8608441359193,129.27064601203688)"><path id="SvgjsPath1217" d="M 0 0L 162.22222222222217 0L 162.22222222222217 54.93080738430734L 0 54.93080738430734Z" stroke="none" fill="none"></path><g id="SvgjsG1218"><text id="SvgjsText1219" font-family="微软雅黑" text-anchor="start" font-size="13px" width="158" fill="#323232" font-weight="400" align="middle" anchor="start" family="微软雅黑" size="13px" weight="400" font-style="" opacity="1" y="1.5154036921536715" transform="rotate(0)"><tspan id="SvgjsTspan1220" dy="16" x="0"><tspan id="SvgjsTspan1221" style="text-decoration:;">Proxy</tspan></tspan><tspan id="SvgjsTspan1222" dy="16" x="0"><tspan id="SvgjsTspan1223" style="text-decoration:;">com.example.ReceiveCon</tspan></tspan><tspan id="SvgjsTspan1224" dy="16" x="0"><tspan id="SvgjsTspan1225" style="text-decoration:;">troller#messageReceiver</tspan></tspan></text></g></g><g id="SvgjsG1226" transform="translate(25.00494723849826,25.547447449322405)"><path id="SvgjsPath1227" d="M 51.61722232677319 30L 51.61722232677319 562.5506634219018" stroke-dasharray="3,4" stroke="rgba(50,50,50,1)" stroke-width="2" fill="none"></path><path id="SvgjsPath1228" d="M 0 0L 103.23444465354638 0L 103.23444465354638 30L 0 30Z" stroke="rgba(50,50,50,1)" stroke-width="2" fill-opacity="1" fill="#ffffff"></path><g id="SvgjsG1229"><text id="SvgjsText1230" font-family="微软雅黑" text-anchor="middle" font-size="12px" width="83" fill="#323232" font-weight="400" align="middle" anchor="middle" family="微软雅黑" size="12px" weight="400" font-style="" opacity="1" y="-1.7999999999999998" transform="rotate(0)"><tspan id="SvgjsTspan1231" dy="15" x="52"><tspan id="SvgjsTspan1232" style="text-decoration:;">ReceiveContro</tspan></tspan><tspan id="SvgjsTspan1233" dy="15" x="52"><tspan id="SvgjsTspan1234" style="text-decoration:;">ller</tspan></tspan></text></g></g><g id="SvgjsG1235" transform="translate(61.89066346232161,374.1533942157129)"><path id="SvgjsPath1236" d="M 0 4Q 0 0 4 0L 26 0Q 30 0 30 4L 30 81.7483925884863Q 30 85.7483925884863 26 85.7483925884863L 4 85.7483925884863Q 0 85.7483925884863 0 81.7483925884863L 0 4Z" stroke="rgba(50,50,50,1)" stroke-width="2" fill-opacity="1" fill="#ffffff"></path></g><g id="SvgjsG1237" transform="translate(106.75695013774924,424.76568144894804)"><path id="SvgjsPath1238" d="M 0 0L 141.88888888888903 0L 141.88888888888903 32.374192479545854L 0 32.374192479545854Z" stroke="none" fill="none"></path><g id="SvgjsG1239"><text id="SvgjsText1240" font-family="微软雅黑" text-anchor="middle" font-size="13px" width="133" fill="#323232" font-weight="400" align="middle" anchor="middle" family="微软雅黑" size="13px" weight="400" font-style="" opacity="1" y="-1.7629037602270727" transform="rotate(0)"><tspan id="SvgjsTspan1241" dy="16" x="71"><tspan id="SvgjsTspan1242" style="text-decoration:;">messageReceiver</tspan></tspan><tspan id="SvgjsTspan1243" dy="16" x="71"><tspan id="SvgjsTspan1244" style="text-decoration:;">(payload, checkpoint)</tspan></tspan></text></g></g><g id="SvgjsG1245"><path id="SvgjsPath1246" d="M1228.1160583496094 394.9017791748047L659.6160583496094 394.9017791748047L659.6160583496094 394.9017868041992L91.11605834960938 394.9017868041992" stroke-dasharray="3,3" stroke="#323232" stroke-width="2" fill="none" marker-end="url(#SvgjsMarker1247)"></path></g><g id="SvgjsG1249" transform="translate(323.22716946072035,506.9017791748047)"><path id="SvgjsPath1250" d="M 0 0L 170.39439144297546 0L 170.39439144297546 34.637373704176525L 0 34.637373704176525Z" stroke="none" fill="none"></path><g id="SvgjsG1251"><text id="SvgjsText1252" font-family="微软雅黑" text-anchor="middle" font-size="12px" width="170" fill="#323232" font-weight="400" align="middle" anchor="middle" family="微软雅黑" size="12px" weight="400" font-style="" opacity="1" y="0.5186868520882628" transform="rotate(0)"><tspan id="SvgjsTspan1253" dy="15" x="85.5"><tspan id="SvgjsTspan1254" style="text-decoration:;">manualCheckpointManager.o</tspan></tspan><tspan id="SvgjsTspan1255" dy="15" x="85.5"><tspan id="SvgjsTspan1256" style="text-decoration:;">nMessage(EventContext)</tspan></tspan></text></g></g><g id="SvgjsG1257"><path id="SvgjsPath1258" d="M91.11605834960938 416.9017868041992L121.11605834960938 416.9017868041992L121.11605834960938 441.9017868041992L91.11605834960938 441.9017868041992" stroke="#323232" stroke-width="2" fill="none" marker-end="url(#SvgjsMarker1259)"></path></g><g id="SvgjsG1261"><path id="SvgjsPath1262" d="M1228.1160583496094 460.9017868041992L772.6160583496094 460.9017868041992L772.6160583496094 460.9017868041992L317.1160583496094 460.9017868041992" stroke-dasharray="3,3" stroke="#323232" stroke-width="2" fill="none" marker-end="url(#SvgjsMarker1263)"></path></g><g id="SvgjsG1265"><path id="SvgjsPath1266" d="M317.1160583496094 476.9017868041992L347.1160583496094 476.9017868041992L346.1160583496094 498.9017868041992L316.1160583496094 498.9017868041992" stroke="#323232" stroke-width="2" fill="none" marker-end="url(#SvgjsMarker1267)"></path></g><g id="SvgjsG1269"><path id="SvgjsPath1270" d="M288.1160583496094 507.9017868041992L183.61605834960938 507.9017868041992L183.61605834960938 507.9017868041992L79.11605834960938 507.9017868041992" stroke-dasharray="3,3" stroke="#323232" stroke-width="2" fill="none" marker-end="url(#SvgjsMarker1271)"></path></g><g id="SvgjsG1273" transform="translate(173.8443917874937,80.90648063546624)"><path id="SvgjsPath1274" d="M 0 4Q 0 0 4 0L 26 0Q 30 0 30 4L 30 38.77307462169517Q 30 42.77307462169517 26 42.77307462169517L 4 42.77307462169517Q 0 42.77307462169517 0 38.77307462169517L 0 4Z" stroke="rgba(50,50,50,1)" stroke-width="2" fill-opacity="1" fill="#ffffff"></path></g><g id="SvgjsG1275" transform="translate(198.75695013774924,61.41820025590155)"><path id="SvgjsPath1276" d="M 0 0L 194.62217581809932 0L 194.62217581809932 22.488280379564685L 0 22.488280379564685Z" stroke="none" fill="none"></path><g id="SvgjsG1277"><text id="SvgjsText1278" font-family="微软雅黑" text-anchor="middle" font-size="12px" width="185" fill="#323232" font-weight="400" align="middle" anchor="middle" family="微软雅黑" size="12px" weight="400" font-style="" opacity="1" y="-5.555859810217657" transform="rotate(0)"><tspan id="SvgjsTspan1279" dy="15" x="97.5"><tspan id="SvgjsTspan1280" style="text-decoration:;">startPartitionPump</tspan></tspan><tspan id="SvgjsTspan1281" dy="15" x="97.5"><tspan id="SvgjsTspan1282" style="text-decoration:;">(PartitionOwnership,checkpoint)</tspan></tspan></text></g></g><g id="SvgjsG1283" transform="translate(160.84439178749372,118.75892639160156)"><path id="SvgjsPath1284" d="M 0 0L 206.8431082125063 0L 206.8431082125063 26L 0 26Z" stroke="none" fill="none"></path><g id="SvgjsG1285"><text id="SvgjsText1286" font-family="微软雅黑" text-anchor="middle" font-size="13px" width="197" fill="#323232" font-weight="400" align="middle" anchor="middle" family="微软雅黑" size="13px" weight="400" font-style="" opacity="1" y="-4.95" transform="rotate(0)"><tspan id="SvgjsTspan1287" dy="16" x="103.5"><tspan id="SvgjsTspan1288" style="text-decoration:;">createConsumer()</tspan></tspan><tspan id="SvgjsTspan1289" dy="16" x="103.5"><tspan id="SvgjsTspan1290" style="text-decoration:;">EventHubConsumerAsyncClient</tspan></tspan></text></g></g><g id="SvgjsG1291"><path id="SvgjsPath1292" d="M203.4017791748047 89.47320556640625L233.4017791748047 89.47320556640625L231.4017791748047 110.47320556640625L201.4017791748047 110.47320556640625" stroke="#323232" stroke-width="2" fill="none" marker-end="url(#SvgjsMarker1293)"></path></g></svg>